<svg width="1600" height="400" viewBox="0 0 1600 400" fill="none" xmlns="http://www.w3.org/2000/svg">
<rect width="1600" height="400" fill="#152822"/>
<path d="M629.76 209V204.48H634.28V209H629.76Z" fill="white"/>
<path d="M395 199.996C395 198.401 394.215 196.908 392.897 196.004L388.892 193.255L392.897 190.505C394.215 189.602 395 188.109 395 186.513C395 184.917 394.215 183.425 392.897 182.52L365.033 163.397C362.322 161.534 358.678 161.534 355.966 163.397L328.103 182.523C326.785 183.427 326 184.919 326 186.515C326 188.111 326.785 189.603 328.103 190.508L332.108 193.257L328.103 196.006C326.785 196.91 326 198.403 326 199.999C326 201.595 326.785 203.087 328.103 203.991L332.108 206.74L328.103 209.49C326.785 210.393 326 211.886 326 213.482C326 215.078 326.785 216.57 328.103 217.475L355.967 236.601C357.322 237.532 358.912 238 360.5 238C362.088 238 363.678 237.533 365.033 236.601L392.897 217.475C394.215 216.571 395 215.078 395 213.482C395 211.886 394.215 210.394 392.897 209.49L388.892 206.74L392.897 203.991C394.215 203.088 395 201.595 395 199.999V199.996ZM329.518 188.45C328.871 188.006 328.501 187.299 328.501 186.515C328.501 185.732 328.871 185.024 329.518 184.581L357.385 165.454C359.248 164.174 361.753 164.174 363.615 165.454L391.482 184.581C392.129 185.024 392.499 185.732 392.499 186.515C392.499 187.299 392.129 188.006 391.482 188.45L386.687 191.74L365.034 176.878C362.324 175.015 358.679 175.015 355.967 176.878L334.314 191.74L329.519 188.45H329.518ZM355.967 209.633C357.322 210.564 358.912 211.032 360.5 211.032C362.088 211.032 363.678 210.565 365.033 209.633L376.865 201.512L384.479 206.738L363.615 221.059C361.752 222.339 359.247 222.339 357.385 221.059L336.521 206.738L344.135 201.512L355.967 209.633ZM346.341 199.996L357.385 192.417C359.248 191.136 361.753 191.136 363.615 192.417L374.659 199.996L363.615 207.575C361.752 208.857 359.247 208.857 357.385 207.575L346.341 199.996ZM365.033 190.359C362.322 188.496 358.678 188.496 355.966 190.359L344.134 198.48L336.52 193.255L357.383 178.934C359.247 177.652 361.752 177.652 363.614 178.934L384.477 193.255L376.864 198.48L365.032 190.359H365.033ZM329.518 201.932C328.871 201.488 328.501 200.781 328.501 199.997C328.501 199.214 328.871 198.507 329.518 198.063L334.313 194.773L341.927 199.999L334.313 205.225L329.518 201.934V201.932ZM391.482 211.544C392.129 211.988 392.499 212.695 392.499 213.479C392.499 214.262 392.129 214.969 391.482 215.413L363.615 234.54C361.752 235.821 359.247 235.821 357.385 234.54L329.518 215.413C328.871 214.969 328.501 214.262 328.501 213.479C328.501 212.695 328.871 211.988 329.518 211.544L334.313 208.254L355.966 223.116C357.321 224.046 358.911 224.514 360.499 224.514C362.086 224.514 363.676 224.048 365.032 223.116L386.684 208.254L391.48 211.544H391.482ZM391.482 201.932L386.687 205.222L379.073 199.996L386.687 194.77L391.482 198.06C392.129 198.504 392.499 199.211 392.499 199.995C392.499 200.779 392.129 201.486 391.482 201.93V201.932Z" fill="white"/>
<path d="M411.52 221V178.4H416.68V199.58L435.82 178.4H442.36L425.68 196.88L443.5 221H437.2L422.2 200.72L416.68 206.78V221H411.52ZM458.845 221.72C455.925 221.72 453.365 221.04 451.165 219.68C448.965 218.32 447.265 216.4 446.065 213.92C444.865 211.4 444.265 208.46 444.265 205.1C444.265 201.7 444.865 198.76 446.065 196.28C447.265 193.8 448.965 191.88 451.165 190.52C453.365 189.16 455.925 188.48 458.845 188.48C461.765 188.48 464.305 189.16 466.465 190.52C468.665 191.88 470.365 193.8 471.565 196.28C472.765 198.76 473.365 201.7 473.365 205.1C473.365 208.46 472.765 211.4 471.565 213.92C470.365 216.4 468.665 218.32 466.465 219.68C464.305 221.04 461.765 221.72 458.845 221.72ZM458.845 216.92C461.765 216.92 464.025 215.88 465.625 213.8C467.265 211.68 468.085 208.78 468.085 205.1C468.085 201.42 467.265 198.54 465.625 196.46C464.025 194.34 461.765 193.28 458.845 193.28C455.925 193.28 453.645 194.34 452.005 196.46C450.365 198.54 449.545 201.42 449.545 205.1C449.545 208.78 450.365 211.68 452.005 213.8C453.645 215.88 455.925 216.92 458.845 216.92ZM480.234 221V189.2H484.854L485.034 197.3L484.434 196.76C484.834 194.88 485.534 193.34 486.534 192.14C487.534 190.9 488.734 189.98 490.134 189.38C491.574 188.78 493.114 188.48 494.754 188.48C497.194 188.48 499.194 189.02 500.754 190.1C502.354 191.18 503.534 192.64 504.294 194.48C505.094 196.28 505.494 198.3 505.494 200.54V221H500.454V201.98C500.454 200.02 500.214 198.38 499.734 197.06C499.294 195.7 498.574 194.68 497.574 194C496.574 193.28 495.274 192.92 493.674 192.92C491.234 192.92 489.214 193.7 487.614 195.26C486.054 196.78 485.274 199.02 485.274 201.98V221H480.234ZM524.335 221C521.455 221 519.315 220.34 517.915 219.02C516.555 217.7 515.875 215.64 515.875 212.84V181.76H520.915V212.72C520.915 214.16 521.235 215.16 521.875 215.72C522.515 216.28 523.495 216.56 524.815 216.56H529.375V221H524.335ZM511.195 193.64V189.2H529.375V193.64H511.195ZM547.673 221.72C544.673 221.72 542.073 221.04 539.873 219.68C537.713 218.32 536.033 216.4 534.833 213.92C533.673 211.4 533.093 208.46 533.093 205.1C533.093 201.74 533.673 198.82 534.833 196.34C536.033 193.86 537.693 191.94 539.813 190.58C541.973 189.18 544.513 188.48 547.433 188.48C550.193 188.48 552.633 189.14 554.753 190.46C556.873 191.74 558.513 193.62 559.673 196.1C560.873 198.58 561.473 201.6 561.473 205.16V206.66H538.373C538.573 210.06 539.473 212.62 541.073 214.34C542.713 216.06 544.913 216.92 547.673 216.92C549.753 216.92 551.453 216.44 552.773 215.48C554.133 214.48 555.073 213.18 555.593 211.58L560.993 212C560.153 214.84 558.553 217.18 556.193 219.02C553.873 220.82 551.033 221.72 547.673 221.72ZM538.373 202.22H555.953C555.713 199.14 554.813 196.88 553.253 195.44C551.733 194 549.793 193.28 547.433 193.28C544.993 193.28 542.973 194.04 541.373 195.56C539.813 197.04 538.813 199.26 538.373 202.22ZM563.918 221L575.618 204.68L564.518 189.2H570.398L578.738 201.2L586.838 189.2H592.838L581.858 204.8L593.378 221H587.498L578.738 208.16L569.918 221H563.918ZM609.471 221C606.591 221 604.451 220.34 603.051 219.02C601.691 217.7 601.011 215.64 601.011 212.84V181.76H606.051V212.72C606.051 214.16 606.371 215.16 607.011 215.72C607.651 216.28 608.631 216.56 609.951 216.56H614.511V221H609.471ZM596.331 193.64V189.2H614.511V193.64H596.331Z" fill="white"/>
<path d="M651.68 221V192.6H655.12V219.4L653.4 217.64H669.32V221H651.68ZM681.121 221.48C679.174 221.48 677.467 221.027 676.001 220.12C674.534 219.213 673.401 217.933 672.601 216.28C671.801 214.6 671.401 212.64 671.401 210.4C671.401 208.133 671.801 206.173 672.601 204.52C673.401 202.867 674.534 201.587 676.001 200.68C677.467 199.773 679.174 199.32 681.121 199.32C683.067 199.32 684.761 199.773 686.201 200.68C687.667 201.587 688.801 202.867 689.601 204.52C690.401 206.173 690.801 208.133 690.801 210.4C690.801 212.64 690.401 214.6 689.601 216.28C688.801 217.933 687.667 219.213 686.201 220.12C684.761 221.027 683.067 221.48 681.121 221.48ZM681.121 218.28C683.067 218.28 684.574 217.587 685.641 216.2C686.734 214.787 687.281 212.853 687.281 210.4C687.281 207.947 686.734 206.027 685.641 204.64C684.574 203.227 683.067 202.52 681.121 202.52C679.174 202.52 677.654 203.227 676.561 204.64C675.467 206.027 674.921 207.947 674.921 210.4C674.921 212.853 675.467 214.787 676.561 216.2C677.654 217.587 679.174 218.28 681.121 218.28ZM703.66 221.48C701.686 221.48 699.966 221.027 698.5 220.12C697.06 219.213 695.94 217.933 695.14 216.28C694.34 214.6 693.94 212.64 693.94 210.4C693.94 208.16 694.34 206.213 695.14 204.56C695.94 202.907 697.06 201.627 698.5 200.72C699.966 199.787 701.686 199.32 703.66 199.32C705.286 199.32 706.726 199.613 707.98 200.2C709.26 200.76 710.3 201.587 711.1 202.68C711.9 203.773 712.42 205.107 712.66 206.68L709.14 206.92C708.9 205.507 708.286 204.427 707.3 203.68C706.313 202.907 705.1 202.52 703.66 202.52C701.713 202.52 700.193 203.227 699.1 204.64C698.006 206.027 697.46 207.947 697.46 210.4C697.46 212.853 698.006 214.787 699.1 216.2C700.193 217.587 701.713 218.28 703.66 218.28C705.1 218.28 706.313 217.88 707.3 217.08C708.286 216.28 708.9 215.08 709.14 213.48L712.66 213.72C712.42 215.293 711.9 216.667 711.1 217.84C710.3 218.987 709.26 219.88 707.98 220.52C706.726 221.16 705.286 221.48 703.66 221.48ZM723.092 221.48C720.905 221.48 719.159 220.973 717.852 219.96C716.572 218.947 715.932 217.533 715.932 215.72C715.932 213.907 716.465 212.48 717.532 211.44C718.599 210.4 720.292 209.667 722.612 209.24L730.132 207.84C730.132 206.053 729.705 204.72 728.852 203.84C728.025 202.96 726.772 202.52 725.092 202.52C723.625 202.52 722.465 202.853 721.612 203.52C720.759 204.16 720.172 205.093 719.852 206.32L716.292 206.04C716.692 204.04 717.652 202.427 719.172 201.2C720.719 199.947 722.692 199.32 725.092 199.32C727.812 199.32 729.892 200.093 731.332 201.64C732.772 203.16 733.492 205.267 733.492 207.96V216.72C733.492 217.2 733.572 217.547 733.732 217.76C733.919 217.947 734.212 218.04 734.612 218.04H735.452V221C735.345 221.027 735.172 221.04 734.932 221.04C734.692 221.067 734.439 221.08 734.172 221.08C733.212 221.08 732.425 220.933 731.812 220.64C731.225 220.32 730.799 219.84 730.532 219.2C730.265 218.533 730.132 217.667 730.132 216.6L730.532 216.68C730.345 217.587 729.892 218.413 729.172 219.16C728.452 219.88 727.559 220.453 726.492 220.88C725.425 221.28 724.292 221.48 723.092 221.48ZM723.412 218.52C724.825 218.52 726.025 218.253 727.012 217.72C728.025 217.16 728.799 216.413 729.332 215.48C729.865 214.52 730.132 213.453 730.132 212.28V210.76L723.252 212.04C721.812 212.307 720.812 212.72 720.252 213.28C719.719 213.813 719.452 214.52 719.452 215.4C719.452 216.387 719.799 217.16 720.492 217.72C721.212 218.253 722.185 218.52 723.412 218.52ZM743.173 221C741.946 221 740.946 220.68 740.173 220.04C739.399 219.4 739.013 218.387 739.013 217V192.6H742.373V216.72C742.373 217.147 742.479 217.48 742.693 217.72C742.933 217.933 743.266 218.04 743.693 218.04H745.533V221H743.173ZM767.397 221.48C765.503 221.48 763.89 221.173 762.557 220.56C761.25 219.947 760.223 219.107 759.477 218.04C758.757 216.947 758.343 215.707 758.237 214.32L761.757 214.08C761.97 215.36 762.517 216.387 763.397 217.16C764.277 217.907 765.61 218.28 767.397 218.28C768.837 218.28 769.983 218.053 770.837 217.6C771.717 217.12 772.157 216.36 772.157 215.32C772.157 214.76 772.023 214.293 771.757 213.92C771.49 213.547 770.97 213.227 770.197 212.96C769.423 212.667 768.277 212.387 766.757 212.12C764.73 211.747 763.13 211.293 761.957 210.76C760.81 210.2 759.983 209.52 759.477 208.72C758.997 207.893 758.757 206.92 758.757 205.8C758.757 203.907 759.45 202.36 760.837 201.16C762.223 199.933 764.197 199.32 766.757 199.32C768.49 199.32 769.943 199.64 771.117 200.28C772.317 200.893 773.25 201.72 773.917 202.76C774.61 203.773 775.063 204.893 775.277 206.12L771.757 206.36C771.597 205.613 771.303 204.96 770.877 204.4C770.45 203.813 769.89 203.36 769.197 203.04C768.503 202.693 767.677 202.52 766.717 202.52C765.197 202.52 764.077 202.813 763.357 203.4C762.637 203.987 762.277 204.733 762.277 205.64C762.277 206.333 762.437 206.907 762.757 207.36C763.103 207.787 763.65 208.147 764.397 208.44C765.143 208.707 766.143 208.947 767.397 209.16C769.557 209.533 771.237 209.987 772.437 210.52C773.637 211.053 774.477 211.707 774.957 212.48C775.437 213.253 775.677 214.2 775.677 215.32C775.677 216.627 775.303 217.747 774.557 218.68C773.837 219.587 772.85 220.28 771.597 220.76C770.37 221.24 768.97 221.48 767.397 221.48ZM786.529 221.48C784.343 221.48 782.596 220.973 781.289 219.96C780.009 218.947 779.369 217.533 779.369 215.72C779.369 213.907 779.903 212.48 780.969 211.44C782.036 210.4 783.729 209.667 786.049 209.24L793.569 207.84C793.569 206.053 793.143 204.72 792.289 203.84C791.463 202.96 790.209 202.52 788.529 202.52C787.063 202.52 785.903 202.853 785.049 203.52C784.196 204.16 783.609 205.093 783.289 206.32L779.729 206.04C780.129 204.04 781.089 202.427 782.609 201.2C784.156 199.947 786.129 199.32 788.529 199.32C791.249 199.32 793.329 200.093 794.769 201.64C796.209 203.16 796.929 205.267 796.929 207.96V216.72C796.929 217.2 797.009 217.547 797.169 217.76C797.356 217.947 797.649 218.04 798.049 218.04H798.889V221C798.783 221.027 798.609 221.04 798.369 221.04C798.129 221.067 797.876 221.08 797.609 221.08C796.649 221.08 795.863 220.933 795.249 220.64C794.663 220.32 794.236 219.84 793.969 219.2C793.703 218.533 793.569 217.667 793.569 216.6L793.969 216.68C793.783 217.587 793.329 218.413 792.609 219.16C791.889 219.88 790.996 220.453 789.929 220.88C788.863 221.28 787.729 221.48 786.529 221.48ZM786.849 218.52C788.263 218.52 789.463 218.253 790.449 217.72C791.463 217.16 792.236 216.413 792.769 215.48C793.303 214.52 793.569 213.453 793.569 212.28V210.76L786.689 212.04C785.249 212.307 784.249 212.72 783.689 213.28C783.156 213.813 782.889 214.52 782.889 215.4C782.889 216.387 783.236 217.16 783.929 217.72C784.649 218.253 785.623 218.52 786.849 218.52ZM803.632 221V197.88C803.632 196.307 804.085 195.04 804.992 194.08C805.898 193.093 807.312 192.6 809.232 192.6H812.592V195.56H809.472C808.645 195.56 808.018 195.787 807.592 196.24C807.192 196.693 806.992 197.32 806.992 198.12V221H803.632ZM800.752 202.76V199.8H812.312V202.76H800.752ZM823.855 221.48C821.855 221.48 820.122 221.027 818.655 220.12C817.215 219.213 816.095 217.933 815.295 216.28C814.522 214.6 814.135 212.64 814.135 210.4C814.135 208.16 814.522 206.213 815.295 204.56C816.095 202.907 817.202 201.627 818.615 200.72C820.055 199.787 821.748 199.32 823.695 199.32C825.535 199.32 827.162 199.76 828.575 200.64C829.988 201.493 831.082 202.747 831.855 204.4C832.655 206.053 833.055 208.067 833.055 210.44V211.44H817.655C817.788 213.707 818.388 215.413 819.455 216.56C820.548 217.707 822.015 218.28 823.855 218.28C825.242 218.28 826.375 217.96 827.255 217.32C828.162 216.653 828.788 215.787 829.135 214.72L832.735 215C832.175 216.893 831.108 218.453 829.535 219.68C827.988 220.88 826.095 221.48 823.855 221.48ZM817.655 208.48H829.375C829.215 206.427 828.615 204.92 827.575 203.96C826.562 203 825.268 202.52 823.695 202.52C822.068 202.52 820.722 203.027 819.655 204.04C818.615 205.027 817.948 206.507 817.655 208.48ZM844.546 221C842.626 221 841.199 220.56 840.266 219.68C839.359 218.8 838.906 217.427 838.906 215.56V194.84H842.266V215.48C842.266 216.44 842.479 217.107 842.906 217.48C843.333 217.853 843.986 218.04 844.866 218.04H847.906V221H844.546ZM835.786 202.76V199.8H847.906V202.76H835.786ZM852.979 227V224.04H855.419C856.166 224.04 856.713 223.92 857.059 223.68C857.433 223.467 857.713 223.107 857.899 222.6L858.659 220.6H857.499L849.739 199.8H853.419L859.739 217.48L865.779 199.8H869.459L860.859 223.68C860.459 224.827 859.859 225.667 859.059 226.2C858.259 226.733 857.153 227 855.739 227H852.979ZM883.544 221V199.8H886.504L886.664 205.16L886.344 205.04C886.61 203.227 887.184 201.907 888.064 201.08C888.97 200.227 890.17 199.8 891.664 199.8H893.744V203H891.704C890.637 203 889.744 203.2 889.024 203.6C888.33 203.973 887.797 204.547 887.424 205.32C887.077 206.067 886.904 207.027 886.904 208.2V221H883.544ZM904.879 221.48C902.772 221.48 901.079 220.773 899.799 219.36C898.545 217.92 897.919 215.947 897.919 213.44V199.8H901.279V212.52C901.279 214.573 901.639 216.093 902.359 217.08C903.105 218.04 904.239 218.52 905.759 218.52C907.439 218.52 908.759 217.987 909.719 216.92C910.679 215.827 911.159 214.333 911.159 212.44V199.8H914.519V221H911.319V215.76L911.839 216.04C911.412 217.773 910.599 219.12 909.399 220.08C908.199 221.013 906.692 221.48 904.879 221.48ZM920.927 221V199.8H924.007L924.127 205.2L923.727 204.84C923.993 203.587 924.46 202.56 925.127 201.76C925.793 200.933 926.593 200.32 927.527 199.92C928.487 199.52 929.513 199.32 930.607 199.32C932.233 199.32 933.567 199.68 934.607 200.4C935.673 201.12 936.46 202.093 936.967 203.32C937.5 204.52 937.767 205.867 937.767 207.36V221H934.407V208.32C934.407 207.013 934.247 205.92 933.927 205.04C933.633 204.133 933.153 203.453 932.487 203C931.82 202.52 930.953 202.28 929.887 202.28C928.26 202.28 926.913 202.8 925.847 203.84C924.807 204.853 924.287 206.347 924.287 208.32V221H920.927ZM950.327 221C948.407 221 946.981 220.56 946.047 219.68C945.141 218.8 944.687 217.427 944.687 215.56V194.84H948.047V215.48C948.047 216.44 948.261 217.107 948.687 217.48C949.114 217.853 949.767 218.04 950.647 218.04H953.687V221H950.327ZM941.567 202.76V199.8H953.687V202.76H941.567ZM957.997 221V199.8H961.357V221H957.997ZM957.917 196.48V192.56H961.437V196.48H957.917ZM968.153 221V199.8H971.233L971.353 205.16L970.873 205C971.113 203.827 971.526 202.827 972.113 202C972.726 201.147 973.473 200.493 974.353 200.04C975.233 199.56 976.206 199.32 977.273 199.32C979.113 199.32 980.606 199.827 981.753 200.84C982.926 201.853 983.66 203.267 983.953 205.08L983.313 205.04C983.526 203.813 983.913 202.787 984.473 201.96C985.06 201.107 985.806 200.453 986.713 200C987.62 199.547 988.66 199.32 989.833 199.32C991.353 199.32 992.633 199.64 993.673 200.28C994.713 200.893 995.5 201.8 996.033 203C996.566 204.2 996.833 205.653 996.833 207.36V221H993.473V208.08C993.473 206.16 993.1 204.72 992.353 203.76C991.606 202.773 990.5 202.28 989.033 202.28C988.046 202.28 987.18 202.52 986.433 203C985.713 203.48 985.153 204.173 984.753 205.08C984.353 205.96 984.153 207.04 984.153 208.32V221H980.793V208.32C980.793 206.427 980.46 204.947 979.793 203.88C979.126 202.813 978.006 202.28 976.433 202.28C975.446 202.28 974.58 202.52 973.833 203C973.113 203.48 972.54 204.173 972.113 205.08C971.713 205.987 971.513 207.067 971.513 208.32V221H968.153ZM1011.04 221.48C1009.04 221.48 1007.31 221.027 1005.84 220.12C1004.4 219.213 1003.28 217.933 1002.48 216.28C1001.71 214.6 1001.32 212.64 1001.32 210.4C1001.32 208.16 1001.71 206.213 1002.48 204.56C1003.28 202.907 1004.39 201.627 1005.8 200.72C1007.24 199.787 1008.94 199.32 1010.88 199.32C1012.72 199.32 1014.35 199.76 1015.76 200.64C1017.18 201.493 1018.27 202.747 1019.04 204.4C1019.84 206.053 1020.24 208.067 1020.24 210.44V211.44H1004.84C1004.98 213.707 1005.58 215.413 1006.64 216.56C1007.74 217.707 1009.2 218.28 1011.04 218.28C1012.43 218.28 1013.56 217.96 1014.44 217.32C1015.35 216.653 1015.98 215.787 1016.32 214.72L1019.92 215C1019.36 216.893 1018.3 218.453 1016.72 219.68C1015.18 220.88 1013.28 221.48 1011.04 221.48ZM1004.84 208.48H1016.56C1016.4 206.427 1015.8 204.92 1014.76 203.96C1013.75 203 1012.46 202.52 1010.88 202.52C1009.26 202.52 1007.91 203.027 1006.84 204.04C1005.8 205.027 1005.14 206.507 1004.84 208.48ZM1037.26 221V197.88C1037.26 196.307 1037.72 195.04 1038.62 194.08C1039.53 193.093 1040.94 192.6 1042.86 192.6H1046.22V195.56H1043.1C1042.28 195.56 1041.65 195.787 1041.22 196.24C1040.82 196.693 1040.62 197.32 1040.62 198.12V221H1037.26ZM1034.38 202.76V199.8H1045.94V202.76H1034.38ZM1057.49 221.48C1055.54 221.48 1053.83 221.027 1052.37 220.12C1050.9 219.213 1049.77 217.933 1048.97 216.28C1048.17 214.6 1047.77 212.64 1047.77 210.4C1047.77 208.133 1048.17 206.173 1048.97 204.52C1049.77 202.867 1050.9 201.587 1052.37 200.68C1053.83 199.773 1055.54 199.32 1057.49 199.32C1059.43 199.32 1061.13 199.773 1062.57 200.68C1064.03 201.587 1065.17 202.867 1065.97 204.52C1066.77 206.173 1067.17 208.133 1067.17 210.4C1067.17 212.64 1066.77 214.6 1065.97 216.28C1065.17 217.933 1064.03 219.213 1062.57 220.12C1061.13 221.027 1059.43 221.48 1057.49 221.48ZM1057.49 218.28C1059.43 218.28 1060.94 217.587 1062.01 216.2C1063.1 214.787 1063.65 212.853 1063.65 210.4C1063.65 207.947 1063.1 206.027 1062.01 204.64C1060.94 203.227 1059.43 202.52 1057.49 202.52C1055.54 202.52 1054.02 203.227 1052.93 204.64C1051.83 206.027 1051.29 207.947 1051.29 210.4C1051.29 212.853 1051.83 214.787 1052.93 216.2C1054.02 217.587 1055.54 218.28 1057.49 218.28ZM1071.75 221V199.8H1074.71L1074.87 205.16L1074.55 205.04C1074.81 203.227 1075.39 201.907 1076.27 201.08C1077.17 200.227 1078.37 199.8 1079.87 199.8H1081.95V203H1079.91C1078.84 203 1077.95 203.2 1077.23 203.6C1076.53 203.973 1076 204.547 1075.63 205.32C1075.28 206.067 1075.11 207.027 1075.11 208.2V221H1071.75ZM1094.5 221L1104.74 192.6H1109.38L1119.62 221H1115.86L1113.02 212.92H1101.1L1098.26 221H1094.5ZM1102.26 209.56H1111.86L1107.06 195.6L1102.26 209.56ZM1123.32 221V192.6H1126.76V221H1123.32ZM1149.34 221.48C1147.16 221.48 1145.41 220.973 1144.1 219.96C1142.82 218.947 1142.18 217.533 1142.18 215.72C1142.18 213.907 1142.72 212.48 1143.78 211.44C1144.85 210.4 1146.54 209.667 1148.86 209.24L1156.38 207.84C1156.38 206.053 1155.96 204.72 1155.1 203.84C1154.28 202.96 1153.02 202.52 1151.34 202.52C1149.88 202.52 1148.72 202.853 1147.86 203.52C1147.01 204.16 1146.42 205.093 1146.1 206.32L1142.54 206.04C1142.94 204.04 1143.9 202.427 1145.42 201.2C1146.97 199.947 1148.94 199.32 1151.34 199.32C1154.06 199.32 1156.14 200.093 1157.58 201.64C1159.02 203.16 1159.74 205.267 1159.74 207.96V216.72C1159.74 217.2 1159.82 217.547 1159.98 217.76C1160.17 217.947 1160.46 218.04 1160.86 218.04H1161.7V221C1161.6 221.027 1161.42 221.04 1161.18 221.04C1160.94 221.067 1160.69 221.08 1160.42 221.08C1159.46 221.08 1158.68 220.933 1158.06 220.64C1157.48 220.32 1157.05 219.84 1156.78 219.2C1156.52 218.533 1156.38 217.667 1156.38 216.6L1156.78 216.68C1156.6 217.587 1156.14 218.413 1155.42 219.16C1154.7 219.88 1153.81 220.453 1152.74 220.88C1151.68 221.28 1150.54 221.48 1149.34 221.48ZM1149.66 218.52C1151.08 218.52 1152.28 218.253 1153.26 217.72C1154.28 217.16 1155.05 216.413 1155.58 215.48C1156.12 214.52 1156.38 213.453 1156.38 212.28V210.76L1149.5 212.04C1148.06 212.307 1147.06 212.72 1146.5 213.28C1145.97 213.813 1145.7 214.52 1145.7 215.4C1145.7 216.387 1146.05 217.16 1146.74 217.72C1147.46 218.253 1148.44 218.52 1149.66 218.52ZM1173.46 227.48C1171.94 227.48 1170.57 227.227 1169.34 226.72C1168.11 226.213 1167.09 225.493 1166.26 224.56C1165.43 223.627 1164.87 222.547 1164.58 221.32L1168.1 221.08C1168.42 222.067 1168.98 222.84 1169.78 223.4C1170.61 223.987 1171.83 224.28 1173.46 224.28C1175.38 224.28 1176.85 223.893 1177.86 223.12C1178.9 222.347 1179.42 221.187 1179.42 219.64V216.2C1178.91 217.32 1178.1 218.213 1176.98 218.88C1175.86 219.547 1174.61 219.88 1173.22 219.88C1171.43 219.88 1169.83 219.44 1168.42 218.56C1167.03 217.68 1165.94 216.467 1165.14 214.92C1164.37 213.373 1163.98 211.6 1163.98 209.6C1163.98 207.573 1164.37 205.8 1165.14 204.28C1165.91 202.733 1166.98 201.52 1168.34 200.64C1169.73 199.76 1171.3 199.32 1173.06 199.32C1174.55 199.32 1175.89 199.667 1177.06 200.36C1178.26 201.053 1179.1 201.987 1179.58 203.16V199.8H1182.78V219.56C1182.78 221.213 1182.41 222.627 1181.66 223.8C1180.91 225 1179.85 225.907 1178.46 226.52C1177.07 227.16 1175.41 227.48 1173.46 227.48ZM1173.38 216.68C1175.19 216.68 1176.65 216.053 1177.74 214.8C1178.83 213.52 1179.39 211.787 1179.42 209.6C1179.45 208.133 1179.21 206.88 1178.7 205.84C1178.22 204.773 1177.51 203.96 1176.58 203.4C1175.67 202.813 1174.61 202.52 1173.38 202.52C1171.51 202.52 1170.06 203.16 1169.02 204.44C1168.01 205.693 1167.5 207.413 1167.5 209.6C1167.5 211.787 1168.02 213.52 1169.06 214.8C1170.13 216.053 1171.57 216.68 1173.38 216.68ZM1197.06 221.48C1195.06 221.48 1193.32 221.027 1191.86 220.12C1190.42 219.213 1189.3 217.933 1188.5 216.28C1187.72 214.6 1187.34 212.64 1187.34 210.4C1187.34 208.16 1187.72 206.213 1188.5 204.56C1189.3 202.907 1190.4 201.627 1191.82 200.72C1193.26 199.787 1194.95 199.32 1196.9 199.32C1198.74 199.32 1200.36 199.76 1201.78 200.64C1203.19 201.493 1204.28 202.747 1205.06 204.4C1205.86 206.053 1206.26 208.067 1206.26 210.44V211.44H1190.86C1190.99 213.707 1191.59 215.413 1192.66 216.56C1193.75 217.707 1195.22 218.28 1197.06 218.28C1198.44 218.28 1199.58 217.96 1200.46 217.32C1201.36 216.653 1201.99 215.787 1202.34 214.72L1205.94 215C1205.38 216.893 1204.31 218.453 1202.74 219.68C1201.19 220.88 1199.3 221.48 1197.06 221.48ZM1190.86 208.48H1202.58C1202.42 206.427 1201.82 204.92 1200.78 203.96C1199.76 203 1198.47 202.52 1196.9 202.52C1195.27 202.52 1193.92 203.027 1192.86 204.04C1191.82 205.027 1191.15 206.507 1190.86 208.48ZM1210.81 221V199.8H1213.89L1214.01 205.2L1213.61 204.84C1213.88 203.587 1214.34 202.56 1215.01 201.76C1215.68 200.933 1216.48 200.32 1217.41 199.92C1218.37 199.52 1219.4 199.32 1220.49 199.32C1222.12 199.32 1223.45 199.68 1224.49 200.4C1225.56 201.12 1226.34 202.093 1226.85 203.32C1227.38 204.52 1227.65 205.867 1227.65 207.36V221H1224.29V208.32C1224.29 207.013 1224.13 205.92 1223.81 205.04C1223.52 204.133 1223.04 203.453 1222.37 203C1221.7 202.52 1220.84 202.28 1219.77 202.28C1218.14 202.28 1216.8 202.8 1215.73 203.84C1214.69 204.853 1214.17 206.347 1214.17 208.32V221H1210.81ZM1240.21 221C1238.29 221 1236.86 220.56 1235.93 219.68C1235.02 218.8 1234.57 217.427 1234.57 215.56V194.84H1237.93V215.48C1237.93 216.44 1238.14 217.107 1238.57 217.48C1239 217.853 1239.65 218.04 1240.53 218.04H1243.57V221H1240.21ZM1231.45 202.76V199.8H1243.57V202.76H1231.45ZM1255.21 221.48C1253.32 221.48 1251.7 221.173 1250.37 220.56C1249.06 219.947 1248.04 219.107 1247.29 218.04C1246.57 216.947 1246.16 215.707 1246.05 214.32L1249.57 214.08C1249.78 215.36 1250.33 216.387 1251.21 217.16C1252.09 217.907 1253.42 218.28 1255.21 218.28C1256.65 218.28 1257.8 218.053 1258.65 217.6C1259.53 217.12 1259.97 216.36 1259.97 215.32C1259.97 214.76 1259.84 214.293 1259.57 213.92C1259.3 213.547 1258.78 213.227 1258.01 212.96C1257.24 212.667 1256.09 212.387 1254.57 212.12C1252.54 211.747 1250.94 211.293 1249.77 210.76C1248.62 210.2 1247.8 209.52 1247.29 208.72C1246.81 207.893 1246.57 206.92 1246.57 205.8C1246.57 203.907 1247.26 202.36 1248.65 201.16C1250.04 199.933 1252.01 199.32 1254.57 199.32C1256.3 199.32 1257.76 199.64 1258.93 200.28C1260.13 200.893 1261.06 201.72 1261.73 202.76C1262.42 203.773 1262.88 204.893 1263.09 206.12L1259.57 206.36C1259.41 205.613 1259.12 204.96 1258.69 204.4C1258.26 203.813 1257.7 203.36 1257.01 203.04C1256.32 202.693 1255.49 202.52 1254.53 202.52C1253.01 202.52 1251.89 202.813 1251.17 203.4C1250.45 203.987 1250.09 204.733 1250.09 205.64C1250.09 206.333 1250.25 206.907 1250.57 207.36C1250.92 207.787 1251.46 208.147 1252.21 208.44C1252.96 208.707 1253.96 208.947 1255.21 209.16C1257.37 209.533 1259.05 209.987 1260.25 210.52C1261.45 211.053 1262.29 211.707 1262.77 212.48C1263.25 213.253 1263.49 214.2 1263.49 215.32C1263.49 216.627 1263.12 217.747 1262.37 218.68C1261.65 219.587 1260.66 220.28 1259.41 220.76C1258.18 221.24 1256.78 221.48 1255.21 221.48ZM1267.03 221V216.48H1271.55V221H1267.03Z" fill="white"/>
</svg>
