<svg width="1500" height="300" viewBox="0 0 1500 300" fill="none" xmlns="http://www.w3.org/2000/svg">
<rect width="1500" height="300" rx="40" fill="#152822"/>
<path d="M863.134 129.64C860.254 129.64 857.774 129.04 855.694 127.84C853.641 126.64 852.054 124.933 850.934 122.72C849.841 120.507 849.294 117.88 849.294 114.84C849.294 111.8 849.841 109.173 850.934 106.96C852.054 104.72 853.641 103 855.694 101.8C857.774 100.573 860.254 99.96 863.134 99.96C866.014 99.96 868.481 100.573 870.534 101.8C872.614 103 874.201 104.72 875.294 106.96C876.414 109.173 876.974 111.8 876.974 114.84C876.974 117.88 876.414 120.507 875.294 122.72C874.201 124.933 872.614 126.64 870.534 127.84C868.481 129.04 866.014 129.64 863.134 129.64ZM863.094 124.52C864.694 124.52 866.054 124.147 867.174 123.4C868.321 122.627 869.187 121.52 869.774 120.08C870.387 118.64 870.694 116.893 870.694 114.84C870.694 112.787 870.387 111.04 869.774 109.6C869.187 108.133 868.321 107.013 867.174 106.24C866.054 105.467 864.694 105.08 863.094 105.08C861.521 105.08 860.174 105.467 859.054 106.24C857.934 107.013 857.067 108.133 856.454 109.6C855.867 111.04 855.574 112.787 855.574 114.84C855.574 116.893 855.867 118.64 856.454 120.08C857.067 121.52 857.934 122.627 859.054 123.4C860.201 124.147 861.547 124.52 863.094 124.52ZM881.709 135V107.56H887.469L887.589 112.08L887.109 111.88C887.642 110.333 888.509 109.147 889.709 108.32C890.909 107.493 892.309 107.08 893.909 107.08C895.909 107.08 897.575 107.573 898.909 108.56C900.242 109.547 901.242 110.893 901.909 112.6C902.602 114.28 902.949 116.173 902.949 118.28C902.949 120.36 902.602 122.253 901.909 123.96C901.242 125.667 900.229 127.013 898.869 128C897.535 128.987 895.869 129.48 893.869 129.48C892.829 129.48 891.855 129.293 890.949 128.92C890.042 128.52 889.255 127.973 888.589 127.28C887.949 126.587 887.482 125.76 887.189 124.8L887.709 124.48V135H881.709ZM892.229 124.88C893.642 124.88 894.749 124.293 895.549 123.12C896.375 121.947 896.789 120.333 896.789 118.28C896.789 116.227 896.375 114.613 895.549 113.44C894.749 112.267 893.642 111.68 892.229 111.68C891.295 111.68 890.482 111.933 889.789 112.44C889.122 112.92 888.602 113.653 888.229 114.64C887.882 115.627 887.709 116.84 887.709 118.28C887.709 119.72 887.882 120.933 888.229 121.92C888.602 122.907 889.122 123.653 889.789 124.16C890.482 124.64 891.295 124.88 892.229 124.88ZM916.71 129.48C914.523 129.48 912.616 129.027 910.99 128.12C909.39 127.187 908.136 125.88 907.23 124.2C906.35 122.52 905.91 120.547 905.91 118.28C905.91 116.013 906.35 114.053 907.23 112.4C908.136 110.72 909.39 109.413 910.99 108.48C912.59 107.547 914.483 107.08 916.67 107.08C918.803 107.08 920.656 107.547 922.23 108.48C923.803 109.413 925.016 110.747 925.87 112.48C926.75 114.213 927.19 116.28 927.19 118.68V119.88H912.11C912.19 121.587 912.643 122.853 913.47 123.68C914.323 124.507 915.443 124.92 916.83 124.92C917.843 124.92 918.683 124.707 919.35 124.28C920.043 123.853 920.536 123.2 920.83 122.32L926.87 122.68C926.31 124.813 925.123 126.48 923.31 127.68C921.496 128.88 919.296 129.48 916.71 129.48ZM912.11 116.2H921.03C920.95 114.627 920.51 113.453 919.71 112.68C918.936 111.907 917.923 111.52 916.67 111.52C915.416 111.52 914.376 111.933 913.55 112.76C912.75 113.56 912.27 114.707 912.11 116.2ZM931.298 129V107.56H936.698L936.938 113.84L936.178 113.64C936.391 112.04 936.818 110.76 937.458 109.8C938.125 108.84 938.951 108.147 939.938 107.72C940.925 107.293 942.005 107.08 943.178 107.08C944.725 107.08 946.031 107.413 947.098 108.08C948.191 108.747 949.018 109.693 949.578 110.92C950.165 112.12 950.458 113.547 950.458 115.2V129H944.458V117.2C944.458 116.053 944.365 115.08 944.178 114.28C943.991 113.48 943.658 112.88 943.178 112.48C942.698 112.053 942.031 111.84 941.178 111.84C939.925 111.84 938.965 112.307 938.298 113.24C937.631 114.147 937.298 115.467 937.298 117.2V129H931.298ZM977.213 129.64C974.759 129.64 972.653 129.227 970.893 128.4C969.133 127.573 967.759 126.413 966.773 124.92C965.786 123.427 965.226 121.667 965.093 119.64L971.213 119.36C971.373 120.48 971.693 121.44 972.173 122.24C972.679 123.013 973.346 123.6 974.173 124C975.026 124.4 976.066 124.6 977.293 124.6C978.306 124.6 979.159 124.48 979.853 124.24C980.573 124 981.119 123.64 981.493 123.16C981.866 122.653 982.053 122.04 982.053 121.32C982.053 120.653 981.893 120.08 981.573 119.6C981.253 119.093 980.639 118.64 979.733 118.24C978.826 117.813 977.493 117.4 975.733 117C973.306 116.44 971.346 115.813 969.853 115.12C968.386 114.427 967.319 113.56 966.653 112.52C965.986 111.453 965.653 110.12 965.653 108.52C965.653 106.813 966.066 105.32 966.893 104.04C967.746 102.76 968.973 101.76 970.573 101.04C972.173 100.32 974.079 99.96 976.293 99.96C978.639 99.96 980.626 100.373 982.253 101.2C983.879 102.027 985.146 103.16 986.053 104.6C986.986 106.04 987.546 107.693 987.733 109.56L981.653 109.88C981.573 108.893 981.306 108.04 980.853 107.32C980.399 106.573 979.786 106 979.013 105.6C978.239 105.2 977.306 105 976.213 105C974.826 105 973.733 105.307 972.933 105.92C972.159 106.533 971.773 107.333 971.773 108.32C971.773 109.013 971.946 109.6 972.293 110.08C972.666 110.533 973.266 110.933 974.093 111.28C974.946 111.627 976.146 111.96 977.693 112.28C980.333 112.813 982.413 113.493 983.933 114.32C985.479 115.12 986.573 116.08 987.213 117.2C987.853 118.32 988.173 119.6 988.173 121.04C988.173 122.8 987.719 124.333 986.813 125.64C985.933 126.92 984.666 127.907 983.013 128.6C981.386 129.293 979.453 129.64 977.213 129.64ZM1003.27 129.48C1001.09 129.48 999.179 129.027 997.553 128.12C995.926 127.187 994.659 125.88 993.753 124.2C992.846 122.52 992.393 120.547 992.393 118.28C992.393 116.013 992.846 114.053 993.753 112.4C994.659 110.72 995.926 109.413 997.553 108.48C999.179 107.547 1001.09 107.08 1003.27 107.08C1005.46 107.08 1007.37 107.547 1008.99 108.48C1010.62 109.413 1011.89 110.72 1012.79 112.4C1013.7 114.053 1014.15 116.013 1014.15 118.28C1014.15 120.547 1013.7 122.52 1012.79 124.2C1011.89 125.88 1010.62 127.187 1008.99 128.12C1007.37 129.027 1005.46 129.48 1003.27 129.48ZM1003.27 124.88C1004.77 124.88 1005.93 124.307 1006.75 123.16C1007.58 121.987 1007.99 120.36 1007.99 118.28C1007.99 116.2 1007.58 114.587 1006.75 113.44C1005.93 112.267 1004.77 111.68 1003.27 111.68C1001.78 111.68 1000.62 112.267 999.793 113.44C998.966 114.587 998.553 116.2 998.553 118.28C998.553 120.36 998.966 121.987 999.793 123.16C1000.62 124.307 1001.78 124.88 1003.27 124.88ZM1025.33 129.48C1023.12 129.48 1021.38 128.773 1020.13 127.36C1018.9 125.92 1018.29 123.92 1018.29 121.36V107.56H1024.29V119.96C1024.29 121.613 1024.54 122.827 1025.05 123.6C1025.56 124.347 1026.36 124.72 1027.45 124.72C1028.68 124.72 1029.62 124.307 1030.29 123.48C1030.98 122.627 1031.33 121.36 1031.33 119.68V107.56H1037.33V129H1031.85L1031.69 122.84L1032.45 123C1032.13 125.133 1031.37 126.747 1030.17 127.84C1028.97 128.933 1027.36 129.48 1025.33 129.48ZM1042.99 129V107.56H1048.67L1048.87 113.8L1048.43 113.68C1048.77 111.52 1049.39 109.96 1050.27 109C1051.15 108.04 1052.36 107.56 1053.91 107.56H1055.87V112.52H1053.91C1052.79 112.52 1051.87 112.667 1051.15 112.96C1050.43 113.253 1049.88 113.72 1049.51 114.36C1049.16 115 1048.99 115.867 1048.99 116.96V129H1042.99ZM1068.5 129.48C1066.31 129.48 1064.4 129.027 1062.78 128.12C1061.15 127.187 1059.88 125.88 1058.98 124.2C1058.07 122.52 1057.62 120.547 1057.62 118.28C1057.62 116.013 1058.07 114.053 1058.98 112.4C1059.88 110.72 1061.15 109.413 1062.78 108.48C1064.4 107.547 1066.31 107.08 1068.5 107.08C1070.39 107.08 1072.08 107.413 1073.58 108.08C1075.1 108.747 1076.32 109.707 1077.26 110.96C1078.19 112.213 1078.76 113.72 1078.98 115.48L1072.78 115.76C1072.59 114.427 1072.11 113.427 1071.34 112.76C1070.59 112.067 1069.64 111.72 1068.5 111.72C1067 111.72 1065.84 112.293 1065.02 113.44C1064.19 114.587 1063.78 116.2 1063.78 118.28C1063.78 120.36 1064.19 121.987 1065.02 123.16C1065.84 124.307 1067 124.88 1068.5 124.88C1069.64 124.88 1070.6 124.533 1071.38 123.84C1072.15 123.12 1072.62 122.04 1072.78 120.6L1078.98 120.84C1078.79 122.6 1078.23 124.133 1077.3 125.44C1076.39 126.72 1075.18 127.72 1073.66 128.44C1072.16 129.133 1070.44 129.48 1068.5 129.48ZM1092.33 129.48C1090.14 129.48 1088.24 129.027 1086.61 128.12C1085.01 127.187 1083.76 125.88 1082.85 124.2C1081.97 122.52 1081.53 120.547 1081.53 118.28C1081.53 116.013 1081.97 114.053 1082.85 112.4C1083.76 110.72 1085.01 109.413 1086.61 108.48C1088.21 107.547 1090.1 107.08 1092.29 107.08C1094.42 107.08 1096.28 107.547 1097.85 108.48C1099.42 109.413 1100.64 110.747 1101.49 112.48C1102.37 114.213 1102.81 116.28 1102.81 118.68V119.88H1087.73C1087.81 121.587 1088.26 122.853 1089.09 123.68C1089.94 124.507 1091.06 124.92 1092.45 124.92C1093.46 124.92 1094.3 124.707 1094.97 124.28C1095.66 123.853 1096.16 123.2 1096.45 122.32L1102.49 122.68C1101.93 124.813 1100.74 126.48 1098.93 127.68C1097.12 128.88 1094.92 129.48 1092.33 129.48ZM1087.73 116.2H1096.65C1096.57 114.627 1096.13 113.453 1095.33 112.68C1094.56 111.907 1093.54 111.52 1092.29 111.52C1091.04 111.52 1090 111.933 1089.17 112.76C1088.37 113.56 1087.89 114.707 1087.73 116.2ZM1117.13 129V100.6H1129.57C1131.65 100.6 1133.45 100.947 1134.97 101.64C1136.52 102.333 1137.71 103.32 1138.53 104.6C1139.36 105.853 1139.77 107.347 1139.77 109.08C1139.77 110.387 1139.49 111.547 1138.93 112.56C1138.4 113.573 1137.65 114.4 1136.69 115.04C1135.76 115.68 1134.68 116.08 1133.45 116.24L1133.33 115.88C1135.23 115.88 1136.67 116.293 1137.65 117.12C1138.64 117.92 1139.2 119.16 1139.33 120.84L1140.05 129H1133.85L1133.33 121.8C1133.25 120.707 1132.91 119.907 1132.29 119.4C1131.71 118.867 1130.69 118.6 1129.25 118.6H1123.21V129H1117.13ZM1123.21 113.52H1128.89C1130.36 113.52 1131.49 113.187 1132.29 112.52C1133.12 111.827 1133.53 110.853 1133.53 109.6C1133.53 108.32 1133.12 107.36 1132.29 106.72C1131.47 106.053 1130.27 105.72 1128.69 105.72H1123.21V113.52ZM1151.75 129.48C1149.54 129.48 1147.81 128.773 1146.55 127.36C1145.33 125.92 1144.71 123.92 1144.71 121.36V107.56H1150.71V119.96C1150.71 121.613 1150.97 122.827 1151.47 123.6C1151.98 124.347 1152.78 124.72 1153.87 124.72C1155.1 124.72 1156.05 124.307 1156.71 123.48C1157.41 122.627 1157.75 121.36 1157.75 119.68V107.56H1163.75V129H1158.27L1158.11 122.84L1158.87 123C1158.55 125.133 1157.79 126.747 1156.59 127.84C1155.39 128.933 1153.78 129.48 1151.75 129.48ZM1169.41 129V107.56H1174.81L1175.05 113.84L1174.29 113.64C1174.5 112.04 1174.93 110.76 1175.57 109.8C1176.24 108.84 1177.06 108.147 1178.05 107.72C1179.04 107.293 1180.12 107.08 1181.29 107.08C1182.84 107.08 1184.14 107.413 1185.21 108.08C1186.3 108.747 1187.13 109.693 1187.69 110.92C1188.28 112.12 1188.57 113.547 1188.57 115.2V129H1182.57V117.2C1182.57 116.053 1182.48 115.08 1182.29 114.28C1182.1 113.48 1181.77 112.88 1181.29 112.48C1180.81 112.053 1180.14 111.84 1179.29 111.84C1178.04 111.84 1177.08 112.307 1176.41 113.24C1175.74 114.147 1175.41 115.467 1175.41 117.2V129H1169.41ZM1201.74 129C1199.52 129 1197.9 128.493 1196.86 127.48C1195.82 126.44 1195.3 124.8 1195.3 122.56V102.52H1201.3V121.84C1201.3 122.88 1201.51 123.587 1201.94 123.96C1202.39 124.333 1203.06 124.52 1203.94 124.52H1206.94V129H1201.74ZM1191.86 112.04V107.56H1206.94V112.04H1191.86ZM1210.87 129V107.56H1216.87V129H1210.87ZM1210.75 104.92V100.12H1216.95V104.92H1210.75ZM1222.8 129V107.56H1228.2L1228.4 112.72L1227.84 112.48C1228.13 111.333 1228.57 110.36 1229.16 109.56C1229.77 108.76 1230.5 108.147 1231.36 107.72C1232.21 107.293 1233.14 107.08 1234.16 107.08C1235.94 107.08 1237.38 107.6 1238.48 108.64C1239.6 109.68 1240.32 111.08 1240.64 112.84L1239.88 112.88C1240.12 111.627 1240.53 110.573 1241.12 109.72C1241.73 108.84 1242.48 108.187 1243.36 107.76C1244.24 107.307 1245.22 107.08 1246.32 107.08C1247.81 107.08 1249.09 107.387 1250.16 108C1251.22 108.613 1252.05 109.533 1252.64 110.76C1253.22 111.96 1253.52 113.44 1253.52 115.2V129H1247.52V116.88C1247.52 115.2 1247.26 113.947 1246.76 113.12C1246.25 112.267 1245.42 111.84 1244.28 111.84C1243.56 111.84 1242.94 112.04 1242.44 112.44C1241.93 112.84 1241.53 113.427 1241.24 114.2C1240.97 114.947 1240.84 115.867 1240.84 116.96V129H1235.44V116.96C1235.44 115.307 1235.2 114.04 1234.72 113.16C1234.24 112.28 1233.41 111.84 1232.24 111.84C1231.52 111.84 1230.89 112.04 1230.36 112.44C1229.85 112.84 1229.46 113.427 1229.2 114.2C1228.93 114.973 1228.8 115.893 1228.8 116.96V129H1222.8ZM1268.34 129.48C1266.16 129.48 1264.25 129.027 1262.62 128.12C1261.02 127.187 1259.77 125.88 1258.86 124.2C1257.98 122.52 1257.54 120.547 1257.54 118.28C1257.54 116.013 1257.98 114.053 1258.86 112.4C1259.77 110.72 1261.02 109.413 1262.62 108.48C1264.22 107.547 1266.12 107.08 1268.3 107.08C1270.44 107.08 1272.29 107.547 1273.86 108.48C1275.44 109.413 1276.65 110.747 1277.5 112.48C1278.38 114.213 1278.82 116.28 1278.82 118.68V119.88H1263.74C1263.82 121.587 1264.28 122.853 1265.1 123.68C1265.96 124.507 1267.08 124.92 1268.46 124.92C1269.48 124.92 1270.32 124.707 1270.98 124.28C1271.68 123.853 1272.17 123.2 1272.46 122.32L1278.5 122.68C1277.94 124.813 1276.76 126.48 1274.94 127.68C1273.13 128.88 1270.93 129.48 1268.34 129.48ZM1263.74 116.2H1272.66C1272.58 114.627 1272.14 113.453 1271.34 112.68C1270.57 111.907 1269.56 111.52 1268.3 111.52C1267.05 111.52 1266.01 111.933 1265.18 112.76C1264.38 113.56 1263.9 114.707 1263.74 116.2ZM1304.38 129.64C1301.93 129.64 1299.82 129.227 1298.06 128.4C1296.3 127.573 1294.93 126.413 1293.94 124.92C1292.96 123.427 1292.4 121.667 1292.26 119.64L1298.38 119.36C1298.54 120.48 1298.86 121.44 1299.34 122.24C1299.85 123.013 1300.52 123.6 1301.34 124C1302.2 124.4 1303.24 124.6 1304.46 124.6C1305.48 124.6 1306.33 124.48 1307.02 124.24C1307.74 124 1308.29 123.64 1308.66 123.16C1309.04 122.653 1309.22 122.04 1309.22 121.32C1309.22 120.653 1309.06 120.08 1308.74 119.6C1308.42 119.093 1307.81 118.64 1306.9 118.24C1306 117.813 1304.66 117.4 1302.9 117C1300.48 116.44 1298.52 115.813 1297.02 115.12C1295.56 114.427 1294.49 113.56 1293.82 112.52C1293.16 111.453 1292.82 110.12 1292.82 108.52C1292.82 106.813 1293.24 105.32 1294.06 104.04C1294.92 102.76 1296.14 101.76 1297.74 101.04C1299.34 100.32 1301.25 99.96 1303.46 99.96C1305.81 99.96 1307.8 100.373 1309.42 101.2C1311.05 102.027 1312.32 103.16 1313.22 104.6C1314.16 106.04 1314.72 107.693 1314.9 109.56L1308.82 109.88C1308.74 108.893 1308.48 108.04 1308.02 107.32C1307.57 106.573 1306.96 106 1306.18 105.6C1305.41 105.2 1304.48 105 1303.38 105C1302 105 1300.9 105.307 1300.1 105.92C1299.33 106.533 1298.94 107.333 1298.94 108.32C1298.94 109.013 1299.12 109.6 1299.46 110.08C1299.84 110.533 1300.44 110.933 1301.26 111.28C1302.12 111.627 1303.32 111.96 1304.86 112.28C1307.5 112.813 1309.58 113.493 1311.1 114.32C1312.65 115.12 1313.74 116.08 1314.38 117.2C1315.02 118.32 1315.34 119.6 1315.34 121.04C1315.34 122.8 1314.89 124.333 1313.98 125.64C1313.1 126.92 1311.84 127.907 1310.18 128.6C1308.56 129.293 1306.62 129.64 1304.38 129.64ZM1330.36 129.48C1328.18 129.48 1326.27 129.027 1324.64 128.12C1323.04 127.187 1321.79 125.88 1320.88 124.2C1320 122.52 1319.56 120.547 1319.56 118.28C1319.56 116.013 1320 114.053 1320.88 112.4C1321.79 110.72 1323.04 109.413 1324.64 108.48C1326.24 107.547 1328.14 107.08 1330.32 107.08C1332.46 107.08 1334.31 107.547 1335.88 108.48C1337.46 109.413 1338.67 110.747 1339.52 112.48C1340.4 114.213 1340.84 116.28 1340.84 118.68V119.88H1325.76C1325.84 121.587 1326.3 122.853 1327.12 123.68C1327.98 124.507 1329.1 124.92 1330.48 124.92C1331.5 124.92 1332.34 124.707 1333 124.28C1333.7 123.853 1334.19 123.2 1334.48 122.32L1340.52 122.68C1339.96 124.813 1338.78 126.48 1336.96 127.68C1335.15 128.88 1332.95 129.48 1330.36 129.48ZM1325.76 116.2H1334.68C1334.6 114.627 1334.16 113.453 1333.36 112.68C1332.59 111.907 1331.58 111.52 1330.32 111.52C1329.07 111.52 1328.03 111.933 1327.2 112.76C1326.4 113.56 1325.92 114.707 1325.76 116.2ZM1354.67 129.48C1352.49 129.48 1350.58 129.027 1348.95 128.12C1347.33 127.187 1346.06 125.88 1345.15 124.2C1344.25 122.52 1343.79 120.547 1343.79 118.28C1343.79 116.013 1344.25 114.053 1345.15 112.4C1346.06 110.72 1347.33 109.413 1348.95 108.48C1350.58 107.547 1352.49 107.08 1354.67 107.08C1356.57 107.08 1358.26 107.413 1359.75 108.08C1361.27 108.747 1362.5 109.707 1363.43 110.96C1364.37 112.213 1364.94 113.72 1365.15 115.48L1358.95 115.76C1358.77 114.427 1358.29 113.427 1357.51 112.76C1356.77 112.067 1355.82 111.72 1354.67 111.72C1353.18 111.72 1352.02 112.293 1351.19 113.44C1350.37 114.587 1349.95 116.2 1349.95 118.28C1349.95 120.36 1350.37 121.987 1351.19 123.16C1352.02 124.307 1353.18 124.88 1354.67 124.88C1355.82 124.88 1356.78 124.533 1357.55 123.84C1358.33 123.12 1358.79 122.04 1358.95 120.6L1365.15 120.84C1364.97 122.6 1364.41 124.133 1363.47 125.44C1362.57 126.72 1361.35 127.72 1359.83 128.44C1358.34 129.133 1356.62 129.48 1354.67 129.48ZM1375.91 129.48C1373.69 129.48 1371.96 128.773 1370.71 127.36C1369.48 125.92 1368.87 123.92 1368.87 121.36V107.56H1374.87V119.96C1374.87 121.613 1375.12 122.827 1375.63 123.6C1376.13 124.347 1376.93 124.72 1378.03 124.72C1379.25 124.72 1380.2 124.307 1380.87 123.48C1381.56 122.627 1381.91 121.36 1381.91 119.68V107.56H1387.91V129H1382.43L1382.27 122.84L1383.03 123C1382.71 125.133 1381.95 126.747 1380.75 127.84C1379.55 128.933 1377.93 129.48 1375.91 129.48ZM1393.56 129V107.56H1399.24L1399.44 113.8L1399 113.68C1399.35 111.52 1399.96 109.96 1400.84 109C1401.72 108.04 1402.94 107.56 1404.48 107.56H1406.44V112.52H1404.48C1403.36 112.52 1402.44 112.667 1401.72 112.96C1401 113.253 1400.46 113.72 1400.08 114.36C1399.74 115 1399.56 115.867 1399.56 116.96V129H1393.56ZM1409.98 129V107.56H1415.98V129H1409.98ZM1409.86 104.92V100.12H1416.06V104.92H1409.86ZM1429.34 129C1427.13 129 1425.5 128.493 1424.46 127.48C1423.42 126.44 1422.9 124.8 1422.9 122.56V102.52H1428.9V121.84C1428.9 122.88 1429.11 123.587 1429.54 123.96C1429.99 124.333 1430.66 124.52 1431.54 124.52H1434.54V129H1429.34ZM1419.46 112.04V107.56H1434.54V112.04H1419.46ZM1439.96 135V130.52H1442.8C1443.5 130.52 1444 130.413 1444.32 130.2C1444.67 130.013 1444.94 129.667 1445.12 129.16L1445.56 127.92H1443.92L1436.4 107.56H1442.52L1447.44 122.32L1452.04 107.56H1458.16L1449.92 131.04C1449.44 132.453 1448.75 133.467 1447.84 134.08C1446.94 134.693 1445.67 135 1444.04 135H1439.96Z" fill="white"/>
<path d="M745.378 186.602V163.882H753.538C756.076 163.882 758.05 164.49 759.458 165.706C760.866 166.922 761.57 168.607 761.57 170.762C761.57 172.212 761.25 173.471 760.61 174.538C759.97 175.583 759.052 176.383 757.858 176.938C756.663 177.492 755.223 177.77 753.538 177.77H748.13V186.602H745.378ZM748.13 175.082H753.538C755.244 175.082 756.524 174.719 757.378 173.994C758.252 173.268 758.69 172.191 758.69 170.762C758.69 169.375 758.252 168.33 757.378 167.626C756.524 166.922 755.244 166.57 753.538 166.57H748.13V175.082ZM771.364 186.986C769.764 186.986 768.377 186.623 767.204 185.898C766.052 185.172 765.156 184.148 764.516 182.826C763.897 181.482 763.588 179.914 763.588 178.122C763.588 176.33 763.897 174.772 764.516 173.45C765.156 172.127 766.041 171.103 767.172 170.378C768.324 169.631 769.679 169.258 771.236 169.258C772.708 169.258 774.009 169.61 775.14 170.314C776.271 170.996 777.145 171.999 777.764 173.322C778.404 174.644 778.724 176.255 778.724 178.154V178.954H766.404C766.511 180.767 766.991 182.132 767.844 183.05C768.719 183.967 769.892 184.426 771.364 184.426C772.473 184.426 773.38 184.17 774.084 183.658C774.809 183.124 775.311 182.431 775.588 181.578L778.468 181.802C778.02 183.316 777.167 184.564 775.908 185.546C774.671 186.506 773.156 186.986 771.364 186.986ZM766.404 176.586H775.78C775.652 174.943 775.172 173.738 774.34 172.97C773.529 172.202 772.495 171.818 771.236 171.818C769.935 171.818 768.857 172.223 768.004 173.034C767.172 173.823 766.639 175.007 766.404 176.586ZM782.205 186.602V169.642H784.573L784.701 173.93L784.445 173.834C784.658 172.383 785.117 171.327 785.821 170.666C786.546 169.983 787.506 169.642 788.701 169.642H790.365V172.202H788.733C787.88 172.202 787.165 172.362 786.589 172.682C786.034 172.98 785.608 173.439 785.309 174.058C785.032 174.655 784.893 175.423 784.893 176.362V186.602H782.205ZM792.889 186.602V169.642H795.353L795.449 173.93L795.065 173.802C795.257 172.863 795.587 172.063 796.057 171.402C796.547 170.719 797.145 170.196 797.849 169.834C798.553 169.45 799.331 169.258 800.185 169.258C801.657 169.258 802.851 169.663 803.769 170.474C804.707 171.284 805.294 172.415 805.529 173.866L805.017 173.834C805.187 172.852 805.497 172.031 805.945 171.37C806.414 170.687 807.011 170.164 807.737 169.802C808.462 169.439 809.294 169.258 810.233 169.258C811.449 169.258 812.473 169.514 813.305 170.026C814.137 170.516 814.766 171.242 815.193 172.202C815.619 173.162 815.833 174.324 815.833 175.69V186.602H813.145V176.266C813.145 174.73 812.846 173.578 812.249 172.81C811.651 172.02 810.766 171.626 809.593 171.626C808.803 171.626 808.11 171.818 807.513 172.202C806.937 172.586 806.489 173.14 806.169 173.866C805.849 174.57 805.689 175.434 805.689 176.458V186.602H803.001V176.458C803.001 174.943 802.734 173.759 802.201 172.906C801.667 172.052 800.771 171.626 799.513 171.626C798.723 171.626 798.03 171.818 797.433 172.202C796.857 172.586 796.398 173.14 796.057 173.866C795.737 174.591 795.577 175.455 795.577 176.458V186.602H792.889ZM820.479 186.602V169.642H823.167V186.602H820.479ZM820.415 166.986V163.85H823.231V166.986H820.415ZM833.995 186.986C832.48 186.986 831.189 186.74 830.123 186.25C829.077 185.759 828.256 185.087 827.659 184.234C827.083 183.359 826.752 182.367 826.667 181.258L829.483 181.066C829.653 182.09 830.091 182.911 830.795 183.53C831.499 184.127 832.565 184.426 833.995 184.426C835.147 184.426 836.064 184.244 836.747 183.882C837.451 183.498 837.803 182.89 837.803 182.058C837.803 181.61 837.696 181.236 837.483 180.938C837.269 180.639 836.853 180.383 836.235 180.17C835.616 179.935 834.699 179.711 833.483 179.498C831.861 179.199 830.581 178.836 829.643 178.41C828.725 177.962 828.064 177.418 827.659 176.778C827.275 176.116 827.083 175.338 827.083 174.442C827.083 172.927 827.637 171.69 828.747 170.73C829.856 169.748 831.435 169.258 833.483 169.258C834.869 169.258 836.032 169.514 836.971 170.026C837.931 170.516 838.677 171.178 839.211 172.01C839.765 172.82 840.128 173.716 840.299 174.698L837.483 174.89C837.355 174.292 837.12 173.77 836.779 173.322C836.437 172.852 835.989 172.49 835.435 172.234C834.88 171.956 834.219 171.818 833.451 171.818C832.235 171.818 831.339 172.052 830.763 172.522C830.187 172.991 829.899 173.588 829.899 174.314C829.899 174.868 830.027 175.327 830.283 175.69C830.56 176.031 830.997 176.319 831.595 176.554C832.192 176.767 832.992 176.959 833.995 177.13C835.723 177.428 837.067 177.791 838.027 178.218C838.987 178.644 839.659 179.167 840.043 179.786C840.427 180.404 840.619 181.162 840.619 182.058C840.619 183.103 840.32 183.999 839.723 184.746C839.147 185.471 838.357 186.026 837.355 186.41C836.373 186.794 835.253 186.986 833.995 186.986ZM850.304 186.986C848.789 186.986 847.498 186.74 846.432 186.25C845.386 185.759 844.565 185.087 843.968 184.234C843.392 183.359 843.061 182.367 842.976 181.258L845.792 181.066C845.962 182.09 846.4 182.911 847.104 183.53C847.808 184.127 848.874 184.426 850.304 184.426C851.456 184.426 852.373 184.244 853.056 183.882C853.76 183.498 854.112 182.89 854.112 182.058C854.112 181.61 854.005 181.236 853.792 180.938C853.578 180.639 853.162 180.383 852.544 180.17C851.925 179.935 851.008 179.711 849.792 179.498C848.17 179.199 846.89 178.836 845.952 178.41C845.034 177.962 844.373 177.418 843.968 176.778C843.584 176.116 843.392 175.338 843.392 174.442C843.392 172.927 843.946 171.69 845.056 170.73C846.165 169.748 847.744 169.258 849.792 169.258C851.178 169.258 852.341 169.514 853.28 170.026C854.24 170.516 854.986 171.178 855.52 172.01C856.074 172.82 856.437 173.716 856.608 174.698L853.792 174.89C853.664 174.292 853.429 173.77 853.088 173.322C852.746 172.852 852.298 172.49 851.744 172.234C851.189 171.956 850.528 171.818 849.76 171.818C848.544 171.818 847.648 172.052 847.072 172.522C846.496 172.991 846.208 173.588 846.208 174.314C846.208 174.868 846.336 175.327 846.592 175.69C846.869 176.031 847.306 176.319 847.904 176.554C848.501 176.767 849.301 176.959 850.304 177.13C852.032 177.428 853.376 177.791 854.336 178.218C855.296 178.644 855.968 179.167 856.352 179.786C856.736 180.404 856.928 181.162 856.928 182.058C856.928 183.103 856.629 183.999 856.032 184.746C855.456 185.471 854.666 186.026 853.664 186.41C852.682 186.794 851.562 186.986 850.304 186.986ZM860.436 186.602V169.642H863.124V186.602H860.436ZM860.372 166.986V163.85H863.188V166.986H860.372ZM874.4 186.986C872.843 186.986 871.478 186.623 870.304 185.898C869.131 185.172 868.224 184.148 867.584 182.826C866.944 181.482 866.624 179.914 866.624 178.122C866.624 176.308 866.944 174.74 867.584 173.418C868.224 172.095 869.131 171.071 870.304 170.346C871.478 169.62 872.843 169.258 874.4 169.258C875.958 169.258 877.312 169.62 878.464 170.346C879.638 171.071 880.544 172.095 881.184 173.418C881.824 174.74 882.144 176.308 882.144 178.122C882.144 179.914 881.824 181.482 881.184 182.826C880.544 184.148 879.638 185.172 878.464 185.898C877.312 186.623 875.958 186.986 874.4 186.986ZM874.4 184.426C875.958 184.426 877.163 183.871 878.016 182.762C878.891 181.631 879.328 180.084 879.328 178.122C879.328 176.159 878.891 174.623 878.016 173.514C877.163 172.383 875.958 171.818 874.4 171.818C872.843 171.818 871.627 172.383 870.752 173.514C869.878 174.623 869.44 176.159 869.44 178.122C869.44 180.084 869.878 181.631 870.752 182.762C871.627 183.871 872.843 184.426 874.4 184.426ZM885.648 186.602V169.642H888.112L888.208 173.962L887.888 173.674C888.101 172.671 888.474 171.85 889.008 171.21C889.541 170.548 890.181 170.058 890.928 169.738C891.696 169.418 892.517 169.258 893.392 169.258C894.693 169.258 895.76 169.546 896.592 170.122C897.445 170.698 898.074 171.476 898.48 172.458C898.906 173.418 899.12 174.495 899.12 175.69V186.602H896.432V176.458C896.432 175.412 896.304 174.538 896.048 173.834C895.813 173.108 895.429 172.564 894.896 172.202C894.362 171.818 893.669 171.626 892.816 171.626C891.514 171.626 890.437 172.042 889.584 172.874C888.752 173.684 888.336 174.879 888.336 176.458V186.602H885.648ZM909.882 186.986C908.368 186.986 907.077 186.74 906.01 186.25C904.965 185.759 904.144 185.087 903.546 184.234C902.97 183.359 902.64 182.367 902.554 181.258L905.37 181.066C905.541 182.09 905.978 182.911 906.682 183.53C907.386 184.127 908.453 184.426 909.882 184.426C911.034 184.426 911.952 184.244 912.634 183.882C913.338 183.498 913.69 182.89 913.69 182.058C913.69 181.61 913.584 181.236 913.37 180.938C913.157 180.639 912.741 180.383 912.122 180.17C911.504 179.935 910.586 179.711 909.37 179.498C907.749 179.199 906.469 178.836 905.53 178.41C904.613 177.962 903.952 177.418 903.546 176.778C903.162 176.116 902.97 175.338 902.97 174.442C902.97 172.927 903.525 171.69 904.634 170.73C905.744 169.748 907.322 169.258 909.37 169.258C910.757 169.258 911.92 169.514 912.858 170.026C913.818 170.516 914.565 171.178 915.098 172.01C915.653 172.82 916.016 173.716 916.186 174.698L913.37 174.89C913.242 174.292 913.008 173.77 912.666 173.322C912.325 172.852 911.877 172.49 911.322 172.234C910.768 171.956 910.106 171.818 909.338 171.818C908.122 171.818 907.226 172.052 906.65 172.522C906.074 172.991 905.786 173.588 905.786 174.314C905.786 174.868 905.914 175.327 906.17 175.69C906.448 176.031 906.885 176.319 907.482 176.554C908.08 176.767 908.88 176.959 909.882 177.13C911.61 177.428 912.954 177.791 913.914 178.218C914.874 178.644 915.546 179.167 915.93 179.786C916.314 180.404 916.506 181.162 916.506 182.058C916.506 183.103 916.208 183.999 915.61 184.746C915.034 185.471 914.245 186.026 913.242 186.41C912.261 186.794 911.141 186.986 909.882 186.986ZM919.272 191.594L920.808 186.602H919.176V182.986H922.792V186.154L920.872 191.594H919.272ZM941.069 186.986C939.49 186.986 938.114 186.623 936.941 185.898C935.789 185.172 934.893 184.148 934.253 182.826C933.613 181.482 933.293 179.914 933.293 178.122C933.293 176.33 933.613 174.772 934.253 173.45C934.893 172.127 935.789 171.103 936.941 170.378C938.114 169.631 939.49 169.258 941.069 169.258C942.37 169.258 943.522 169.492 944.525 169.962C945.549 170.41 946.381 171.071 947.021 171.946C947.661 172.82 948.077 173.887 948.269 175.146L945.453 175.338C945.261 174.207 944.77 173.343 943.981 172.746C943.192 172.127 942.221 171.818 941.069 171.818C939.512 171.818 938.296 172.383 937.421 173.514C936.546 174.623 936.109 176.159 936.109 178.122C936.109 180.084 936.546 181.631 937.421 182.762C938.296 183.871 939.512 184.426 941.069 184.426C942.221 184.426 943.192 184.106 943.981 183.466C944.77 182.826 945.261 181.866 945.453 180.586L948.269 180.778C948.077 182.036 947.661 183.135 947.021 184.074C946.381 184.991 945.549 185.706 944.525 186.218C943.522 186.73 942.37 186.986 941.069 186.986ZM951.441 186.602V169.642H953.809L953.937 173.93L953.681 173.834C953.895 172.383 954.353 171.327 955.057 170.666C955.783 169.983 956.743 169.642 957.937 169.642H959.601V172.202H957.969C957.116 172.202 956.401 172.362 955.825 172.682C955.271 172.98 954.844 173.439 954.545 174.058C954.268 174.655 954.129 175.423 954.129 176.362V186.602H951.441ZM968.749 186.986C967.149 186.986 965.762 186.623 964.589 185.898C963.437 185.172 962.541 184.148 961.901 182.826C961.282 181.482 960.973 179.914 960.973 178.122C960.973 176.33 961.282 174.772 961.901 173.45C962.541 172.127 963.426 171.103 964.557 170.378C965.709 169.631 967.064 169.258 968.621 169.258C970.093 169.258 971.394 169.61 972.525 170.314C973.656 170.996 974.53 171.999 975.149 173.322C975.789 174.644 976.109 176.255 976.109 178.154V178.954H963.789C963.896 180.767 964.376 182.132 965.229 183.05C966.104 183.967 967.277 184.426 968.749 184.426C969.858 184.426 970.765 184.17 971.469 183.658C972.194 183.124 972.696 182.431 972.973 181.578L975.853 181.802C975.405 183.316 974.552 184.564 973.293 185.546C972.056 186.506 970.541 186.986 968.749 186.986ZM963.789 176.586H973.165C973.037 174.943 972.557 173.738 971.725 172.97C970.914 172.202 969.88 171.818 968.621 171.818C967.32 171.818 966.242 172.223 965.389 173.034C964.557 173.823 964.024 175.007 963.789 176.586ZM985.606 186.986C984.134 186.986 982.854 186.623 981.766 185.898C980.699 185.172 979.878 184.148 979.302 182.826C978.726 181.503 978.438 179.935 978.438 178.122C978.438 176.308 978.726 174.74 979.302 173.418C979.878 172.095 980.699 171.071 981.766 170.346C982.854 169.62 984.134 169.258 985.606 169.258C986.737 169.258 987.771 169.503 988.71 169.994C989.649 170.463 990.353 171.135 990.822 172.01V163.882H993.51V186.602H991.078L990.982 184.042C990.513 184.959 989.798 185.684 988.838 186.218C987.878 186.73 986.801 186.986 985.606 186.986ZM986.15 184.426C987.153 184.426 987.995 184.17 988.678 183.658C989.382 183.146 989.915 182.42 990.278 181.482C990.641 180.522 990.822 179.402 990.822 178.122C990.822 176.799 990.641 175.668 990.278 174.73C989.915 173.791 989.382 173.076 988.678 172.586C987.995 172.074 987.153 171.818 986.15 171.818C984.657 171.818 983.462 172.383 982.566 173.514C981.691 174.623 981.254 176.159 981.254 178.122C981.254 180.063 981.691 181.599 982.566 182.73C983.462 183.86 984.657 184.426 986.15 184.426ZM1004.77 186.986C1003.17 186.986 1001.79 186.623 1000.61 185.898C999.461 185.172 998.565 184.148 997.925 182.826C997.306 181.482 996.997 179.914 996.997 178.122C996.997 176.33 997.306 174.772 997.925 173.45C998.565 172.127 999.45 171.103 1000.58 170.378C1001.73 169.631 1003.09 169.258 1004.64 169.258C1006.12 169.258 1007.42 169.61 1008.55 170.314C1009.68 170.996 1010.55 171.999 1011.17 173.322C1011.81 174.644 1012.13 176.255 1012.13 178.154V178.954H999.813C999.919 180.767 1000.4 182.132 1001.25 183.05C1002.13 183.967 1003.3 184.426 1004.77 184.426C1005.88 184.426 1006.79 184.17 1007.49 183.658C1008.22 183.124 1008.72 182.431 1009 181.578L1011.88 181.802C1011.43 183.316 1010.58 184.564 1009.32 185.546C1008.08 186.506 1006.56 186.986 1004.77 186.986ZM999.813 176.586H1009.19C1009.06 174.943 1008.58 173.738 1007.75 172.97C1006.94 172.202 1005.9 171.818 1004.64 171.818C1003.34 171.818 1002.27 172.223 1001.41 173.034C1000.58 173.823 1000.05 175.007 999.813 176.586ZM1015.61 186.602V169.642H1018.08L1018.17 173.962L1017.85 173.674C1018.07 172.671 1018.44 171.85 1018.97 171.21C1019.51 170.548 1020.15 170.058 1020.89 169.738C1021.66 169.418 1022.48 169.258 1023.36 169.258C1024.66 169.258 1025.73 169.546 1026.56 170.122C1027.41 170.698 1028.04 171.476 1028.45 172.458C1028.87 173.418 1029.09 174.495 1029.09 175.69V186.602H1026.4V176.458C1026.4 175.412 1026.27 174.538 1026.01 173.834C1025.78 173.108 1025.4 172.564 1024.86 172.202C1024.33 171.818 1023.64 171.626 1022.78 171.626C1021.48 171.626 1020.4 172.042 1019.55 172.874C1018.72 173.684 1018.3 174.879 1018.3 176.458V186.602H1015.61ZM1038.97 186.602C1037.44 186.602 1036.3 186.25 1035.55 185.546C1034.82 184.842 1034.46 183.743 1034.46 182.25V165.674H1037.15V182.186C1037.15 182.954 1037.32 183.487 1037.66 183.786C1038 184.084 1038.53 184.234 1039.23 184.234H1041.66V186.602H1038.97ZM1031.97 172.01V169.642H1041.66V172.01H1031.97ZM1044.95 186.602V169.642H1047.64V186.602H1044.95ZM1044.89 166.986V163.85H1047.7V166.986H1044.89ZM1056.87 186.986C1055.12 186.986 1053.72 186.58 1052.67 185.77C1051.65 184.959 1051.14 183.828 1051.14 182.378C1051.14 180.927 1051.56 179.786 1052.42 178.954C1053.27 178.122 1054.63 177.535 1056.48 177.194L1062.5 176.074C1062.5 174.644 1062.16 173.578 1061.47 172.874C1060.81 172.17 1059.81 171.818 1058.47 171.818C1057.29 171.818 1056.36 172.084 1055.68 172.618C1055 173.13 1054.53 173.876 1054.27 174.858L1051.43 174.634C1051.75 173.034 1052.51 171.743 1053.73 170.762C1054.97 169.759 1056.55 169.258 1058.47 169.258C1060.64 169.258 1062.31 169.876 1063.46 171.114C1064.61 172.33 1065.19 174.015 1065.19 176.17V183.178C1065.19 183.562 1065.25 183.839 1065.38 184.01C1065.53 184.159 1065.76 184.234 1066.08 184.234H1066.75V186.602C1066.67 186.623 1066.53 186.634 1066.34 186.634C1066.15 186.655 1065.94 186.666 1065.73 186.666C1064.96 186.666 1064.33 186.548 1063.84 186.314C1063.37 186.058 1063.03 185.674 1062.82 185.162C1062.6 184.628 1062.5 183.935 1062.5 183.082L1062.82 183.146C1062.67 183.871 1062.31 184.532 1061.73 185.13C1061.15 185.706 1060.44 186.164 1059.59 186.506C1058.73 186.826 1057.83 186.986 1056.87 186.986ZM1057.12 184.618C1058.25 184.618 1059.21 184.404 1060 183.978C1060.81 183.53 1061.43 182.932 1061.86 182.186C1062.28 181.418 1062.5 180.564 1062.5 179.626V178.41L1056.99 179.434C1055.84 179.647 1055.04 179.978 1054.59 180.426C1054.17 180.852 1053.95 181.418 1053.95 182.122C1053.95 182.911 1054.23 183.53 1054.79 183.978C1055.36 184.404 1056.14 184.618 1057.12 184.618ZM1072.77 186.602C1071.79 186.602 1070.99 186.346 1070.37 185.834C1069.75 185.322 1069.44 184.511 1069.44 183.402V163.882H1072.13V183.178C1072.13 183.519 1072.22 183.786 1072.39 183.978C1072.58 184.148 1072.85 184.234 1073.19 184.234H1074.66V186.602H1072.77ZM1083.8 186.986C1082.29 186.986 1081 186.74 1079.93 186.25C1078.88 185.759 1078.06 185.087 1077.47 184.234C1076.89 183.359 1076.56 182.367 1076.47 181.258L1079.29 181.066C1079.46 182.09 1079.9 182.911 1080.6 183.53C1081.31 184.127 1082.37 184.426 1083.8 184.426C1084.95 184.426 1085.87 184.244 1086.55 183.882C1087.26 183.498 1087.61 182.89 1087.61 182.058C1087.61 181.61 1087.5 181.236 1087.29 180.938C1087.08 180.639 1086.66 180.383 1086.04 180.17C1085.42 179.935 1084.51 179.711 1083.29 179.498C1081.67 179.199 1080.39 178.836 1079.45 178.41C1078.53 177.962 1077.87 177.418 1077.47 176.778C1077.08 176.116 1076.89 175.338 1076.89 174.442C1076.89 172.927 1077.44 171.69 1078.55 170.73C1079.66 169.748 1081.24 169.258 1083.29 169.258C1084.68 169.258 1085.84 169.514 1086.78 170.026C1087.74 170.516 1088.48 171.178 1089.02 172.01C1089.57 172.82 1089.94 173.716 1090.11 174.698L1087.29 174.89C1087.16 174.292 1086.93 173.77 1086.59 173.322C1086.24 172.852 1085.8 172.49 1085.24 172.234C1084.69 171.956 1084.03 171.818 1083.26 171.818C1082.04 171.818 1081.15 172.052 1080.57 172.522C1079.99 172.991 1079.71 173.588 1079.71 174.314C1079.71 174.868 1079.83 175.327 1080.09 175.69C1080.37 176.031 1080.8 176.319 1081.4 176.554C1082 176.767 1082.8 176.959 1083.8 177.13C1085.53 177.428 1086.87 177.791 1087.83 178.218C1088.79 178.644 1089.47 179.167 1089.85 179.786C1090.23 180.404 1090.43 181.162 1090.43 182.058C1090.43 183.103 1090.13 183.999 1089.53 184.746C1088.95 185.471 1088.16 186.026 1087.16 186.41C1086.18 186.794 1085.06 186.986 1083.8 186.986ZM1093.19 191.594L1094.73 186.602H1093.1V182.986H1096.71V186.154L1094.79 191.594H1093.19ZM1108.37 191.402V169.642H1110.86L1110.93 173.29L1110.54 173.098C1110.97 171.839 1111.67 170.89 1112.65 170.25C1113.66 169.588 1114.81 169.258 1116.11 169.258C1117.79 169.258 1119.17 169.674 1120.24 170.506C1121.33 171.338 1122.13 172.426 1122.64 173.77C1123.17 175.114 1123.44 176.564 1123.44 178.122C1123.44 179.679 1123.17 181.13 1122.64 182.474C1122.13 183.818 1121.33 184.906 1120.24 185.738C1119.17 186.57 1117.79 186.986 1116.11 186.986C1115.23 186.986 1114.41 186.836 1113.65 186.538C1112.9 186.239 1112.26 185.823 1111.73 185.29C1111.21 184.756 1110.86 184.127 1110.67 183.402L1111.05 182.954V191.402H1108.37ZM1115.85 184.426C1117.33 184.426 1118.49 183.871 1119.34 182.762C1120.19 181.652 1120.62 180.106 1120.62 178.122C1120.62 176.138 1120.19 174.591 1119.34 173.482C1118.49 172.372 1117.33 171.818 1115.85 171.818C1114.87 171.818 1114.02 172.052 1113.29 172.522C1112.59 172.991 1112.03 173.695 1111.63 174.634C1111.25 175.572 1111.05 176.735 1111.05 178.122C1111.05 179.508 1111.25 180.671 1111.63 181.61C1112.01 182.548 1112.57 183.252 1113.29 183.722C1114.02 184.191 1114.87 184.426 1115.85 184.426ZM1133.55 186.986C1131.99 186.986 1130.63 186.623 1129.45 185.898C1128.28 185.172 1127.37 184.148 1126.73 182.826C1126.09 181.482 1125.77 179.914 1125.77 178.122C1125.77 176.308 1126.09 174.74 1126.73 173.418C1127.37 172.095 1128.28 171.071 1129.45 170.346C1130.63 169.62 1131.99 169.258 1133.55 169.258C1135.11 169.258 1136.46 169.62 1137.61 170.346C1138.79 171.071 1139.69 172.095 1140.33 173.418C1140.97 174.74 1141.29 176.308 1141.29 178.122C1141.29 179.914 1140.97 181.482 1140.33 182.826C1139.69 184.148 1138.79 185.172 1137.61 185.898C1136.46 186.623 1135.11 186.986 1133.55 186.986ZM1133.55 184.426C1135.11 184.426 1136.31 183.871 1137.16 182.762C1138.04 181.631 1138.48 180.084 1138.48 178.122C1138.48 176.159 1138.04 174.623 1137.16 173.514C1136.31 172.383 1135.11 171.818 1133.55 171.818C1131.99 171.818 1130.77 172.383 1129.9 173.514C1129.03 174.623 1128.59 176.159 1128.59 178.122C1128.59 180.084 1129.03 181.631 1129.9 182.762C1130.77 183.871 1131.99 184.426 1133.55 184.426ZM1148.28 186.602C1147.3 186.602 1146.5 186.346 1145.88 185.834C1145.26 185.322 1144.95 184.511 1144.95 183.402V163.882H1147.64V183.178C1147.64 183.519 1147.72 183.786 1147.9 183.978C1148.09 184.148 1148.35 184.234 1148.7 184.234H1150.17V186.602H1148.28ZM1153.07 186.602V169.642H1155.76V186.602H1153.07ZM1153.01 166.986V163.85H1155.82V166.986H1153.01ZM1167.04 186.986C1165.46 186.986 1164.08 186.623 1162.91 185.898C1161.76 185.172 1160.86 184.148 1160.22 182.826C1159.58 181.482 1159.26 179.914 1159.26 178.122C1159.26 176.33 1159.58 174.772 1160.22 173.45C1160.86 172.127 1161.76 171.103 1162.91 170.378C1164.08 169.631 1165.46 169.258 1167.04 169.258C1168.34 169.258 1169.49 169.492 1170.49 169.962C1171.52 170.41 1172.35 171.071 1172.99 171.946C1173.63 172.82 1174.04 173.887 1174.24 175.146L1171.42 175.338C1171.23 174.207 1170.74 173.343 1169.95 172.746C1169.16 172.127 1168.19 171.818 1167.04 171.818C1165.48 171.818 1164.26 172.383 1163.39 173.514C1162.51 174.623 1162.08 176.159 1162.08 178.122C1162.08 180.084 1162.51 181.631 1163.39 182.762C1164.26 183.871 1165.48 184.426 1167.04 184.426C1168.19 184.426 1169.16 184.106 1169.95 183.466C1170.74 182.826 1171.23 181.866 1171.42 180.586L1174.24 180.778C1174.04 182.036 1173.63 183.135 1172.99 184.074C1172.35 184.991 1171.52 185.706 1170.49 186.218C1169.49 186.73 1168.34 186.986 1167.04 186.986ZM1177.64 191.402V189.034H1179.6C1180.19 189.034 1180.63 188.938 1180.91 188.746C1181.21 188.575 1181.43 188.287 1181.58 187.882L1182.19 186.282H1181.26L1175.05 169.642H1178L1183.05 183.786L1187.88 169.642H1190.83L1183.95 188.746C1183.63 189.663 1183.15 190.335 1182.51 190.762C1181.87 191.188 1180.98 191.402 1179.85 191.402H1177.64ZM1208.4 186.986C1206.8 186.986 1205.41 186.623 1204.24 185.898C1203.09 185.172 1202.19 184.148 1201.55 182.826C1200.93 181.482 1200.62 179.914 1200.62 178.122C1200.62 176.33 1200.93 174.772 1201.55 173.45C1202.19 172.127 1203.08 171.103 1204.21 170.378C1205.36 169.631 1206.71 169.258 1208.27 169.258C1209.74 169.258 1211.05 169.61 1212.18 170.314C1213.31 170.996 1214.18 171.999 1214.8 173.322C1215.44 174.644 1215.76 176.255 1215.76 178.154V178.954H1203.44C1203.55 180.767 1204.03 182.132 1204.88 183.05C1205.75 183.967 1206.93 184.426 1208.4 184.426C1209.51 184.426 1210.42 184.17 1211.12 183.658C1211.85 183.124 1212.35 182.431 1212.62 181.578L1215.5 181.802C1215.06 183.316 1214.2 184.564 1212.94 185.546C1211.71 186.506 1210.19 186.986 1208.4 186.986ZM1203.44 176.586H1212.82C1212.69 174.943 1212.21 173.738 1211.38 172.97C1210.57 172.202 1209.53 171.818 1208.27 171.818C1206.97 171.818 1205.89 172.223 1205.04 173.034C1204.21 173.823 1203.67 175.007 1203.44 176.586ZM1219.24 186.602V169.642H1221.71L1221.8 173.962L1221.48 173.674C1221.69 172.671 1222.07 171.85 1222.6 171.21C1223.13 170.548 1223.77 170.058 1224.52 169.738C1225.29 169.418 1226.11 169.258 1226.99 169.258C1228.29 169.258 1229.35 169.546 1230.19 170.122C1231.04 170.698 1231.67 171.476 1232.07 172.458C1232.5 173.418 1232.71 174.495 1232.71 175.69V186.602H1230.03V176.458C1230.03 175.412 1229.9 174.538 1229.64 173.834C1229.41 173.108 1229.02 172.564 1228.49 172.202C1227.96 171.818 1227.26 171.626 1226.41 171.626C1225.11 171.626 1224.03 172.042 1223.18 172.874C1222.35 173.684 1221.93 174.879 1221.93 176.458V186.602H1219.24ZM1238.25 186.602V168.106C1238.25 166.847 1238.61 165.834 1239.33 165.066C1240.06 164.276 1241.19 163.882 1242.73 163.882H1245.41V166.25H1242.92C1242.26 166.25 1241.75 166.431 1241.41 166.794C1241.09 167.156 1240.93 167.658 1240.93 168.298V186.602H1238.25ZM1235.94 172.01V169.642H1245.19V172.01H1235.94ZM1254.26 186.986C1252.71 186.986 1251.34 186.623 1250.17 185.898C1248.99 185.172 1248.09 184.148 1247.45 182.826C1246.81 181.482 1246.49 179.914 1246.49 178.122C1246.49 176.308 1246.81 174.74 1247.45 173.418C1248.09 172.095 1248.99 171.071 1250.17 170.346C1251.34 169.62 1252.71 169.258 1254.26 169.258C1255.82 169.258 1257.18 169.62 1258.33 170.346C1259.5 171.071 1260.41 172.095 1261.05 173.418C1261.69 174.74 1262.01 176.308 1262.01 178.122C1262.01 179.914 1261.69 181.482 1261.05 182.826C1260.41 184.148 1259.5 185.172 1258.33 185.898C1257.18 186.623 1255.82 186.986 1254.26 186.986ZM1254.26 184.426C1255.82 184.426 1257.03 183.871 1257.88 182.762C1258.75 181.631 1259.19 180.084 1259.19 178.122C1259.19 176.159 1258.75 174.623 1257.88 173.514C1257.03 172.383 1255.82 171.818 1254.26 171.818C1252.71 171.818 1251.49 172.383 1250.62 173.514C1249.74 174.623 1249.3 176.159 1249.3 178.122C1249.3 180.084 1249.74 181.631 1250.62 182.762C1251.49 183.871 1252.71 184.426 1254.26 184.426ZM1265.51 186.602V169.642H1267.88L1268.01 173.93L1267.75 173.834C1267.96 172.383 1268.42 171.327 1269.13 170.666C1269.85 169.983 1270.81 169.642 1272.01 169.642H1273.67V172.202H1272.04C1271.19 172.202 1270.47 172.362 1269.9 172.682C1269.34 172.98 1268.91 173.439 1268.62 174.058C1268.34 174.655 1268.2 175.423 1268.2 176.362V186.602H1265.51ZM1282.82 186.986C1281.24 186.986 1279.86 186.623 1278.69 185.898C1277.54 185.172 1276.64 184.148 1276 182.826C1275.36 181.482 1275.04 179.914 1275.04 178.122C1275.04 176.33 1275.36 174.772 1276 173.45C1276.64 172.127 1277.54 171.103 1278.69 170.378C1279.86 169.631 1281.24 169.258 1282.82 169.258C1284.12 169.258 1285.27 169.492 1286.28 169.962C1287.3 170.41 1288.13 171.071 1288.77 171.946C1289.41 172.82 1289.83 173.887 1290.02 175.146L1287.2 175.338C1287.01 174.207 1286.52 173.343 1285.73 172.746C1284.94 172.127 1283.97 171.818 1282.82 171.818C1281.26 171.818 1280.05 172.383 1279.17 173.514C1278.3 174.623 1277.86 176.159 1277.86 178.122C1277.86 180.084 1278.3 181.631 1279.17 182.762C1280.05 183.871 1281.26 184.426 1282.82 184.426C1283.97 184.426 1284.94 184.106 1285.73 183.466C1286.52 182.826 1287.01 181.866 1287.2 180.586L1290.02 180.778C1289.83 182.036 1289.41 183.135 1288.77 184.074C1288.13 184.991 1287.3 185.706 1286.28 186.218C1285.27 186.73 1284.12 186.986 1282.82 186.986ZM1299.82 186.986C1298.22 186.986 1296.83 186.623 1295.66 185.898C1294.5 185.172 1293.61 184.148 1292.97 182.826C1292.35 181.482 1292.04 179.914 1292.04 178.122C1292.04 176.33 1292.35 174.772 1292.97 173.45C1293.61 172.127 1294.49 171.103 1295.62 170.378C1296.78 169.631 1298.13 169.258 1299.69 169.258C1301.16 169.258 1302.46 169.61 1303.59 170.314C1304.72 170.996 1305.6 171.999 1306.22 173.322C1306.86 174.644 1307.18 176.255 1307.18 178.154V178.954H1294.86C1294.96 180.767 1295.44 182.132 1296.3 183.05C1297.17 183.967 1298.34 184.426 1299.82 184.426C1300.92 184.426 1301.83 184.17 1302.54 183.658C1303.26 183.124 1303.76 182.431 1304.04 181.578L1306.92 181.802C1306.47 183.316 1305.62 184.564 1304.36 185.546C1303.12 186.506 1301.61 186.986 1299.82 186.986ZM1294.86 176.586H1304.23C1304.1 174.943 1303.62 173.738 1302.79 172.97C1301.98 172.202 1300.95 171.818 1299.69 171.818C1298.39 171.818 1297.31 172.223 1296.46 173.034C1295.62 173.823 1295.09 175.007 1294.86 176.586ZM1310.66 186.602V169.642H1313.12L1313.22 173.93L1312.83 173.802C1313.02 172.863 1313.35 172.063 1313.82 171.402C1314.31 170.719 1314.91 170.196 1315.62 169.834C1316.32 169.45 1317.1 169.258 1317.95 169.258C1319.42 169.258 1320.62 169.663 1321.54 170.474C1322.47 171.284 1323.06 172.415 1323.3 173.866L1322.78 173.834C1322.95 172.852 1323.26 172.031 1323.71 171.37C1324.18 170.687 1324.78 170.164 1325.5 169.802C1326.23 169.439 1327.06 169.258 1328 169.258C1329.22 169.258 1330.24 169.514 1331.07 170.026C1331.9 170.516 1332.53 171.242 1332.96 172.202C1333.39 173.162 1333.6 174.324 1333.6 175.69V186.602H1330.91V176.266C1330.91 174.73 1330.61 173.578 1330.02 172.81C1329.42 172.02 1328.53 171.626 1327.36 171.626C1326.57 171.626 1325.88 171.818 1325.28 172.202C1324.7 172.586 1324.26 173.14 1323.94 173.866C1323.62 174.57 1323.46 175.434 1323.46 176.458V186.602H1320.77V176.458C1320.77 174.943 1320.5 173.759 1319.97 172.906C1319.43 172.052 1318.54 171.626 1317.28 171.626C1316.49 171.626 1315.8 171.818 1315.2 172.202C1314.62 172.586 1314.17 173.14 1313.82 173.866C1313.5 174.591 1313.34 175.455 1313.34 176.458V186.602H1310.66ZM1344.81 186.986C1343.21 186.986 1341.82 186.623 1340.65 185.898C1339.5 185.172 1338.6 184.148 1337.96 182.826C1337.34 181.482 1337.03 179.914 1337.03 178.122C1337.03 176.33 1337.34 174.772 1337.96 173.45C1338.6 172.127 1339.49 171.103 1340.62 170.378C1341.77 169.631 1343.12 169.258 1344.68 169.258C1346.15 169.258 1347.45 169.61 1348.58 170.314C1349.71 170.996 1350.59 171.999 1351.21 173.322C1351.85 174.644 1352.17 176.255 1352.17 178.154V178.954H1339.85C1339.95 180.767 1340.43 182.132 1341.29 183.05C1342.16 183.967 1343.34 184.426 1344.81 184.426C1345.92 184.426 1346.82 184.17 1347.53 183.658C1348.25 183.124 1348.75 182.431 1349.03 181.578L1351.91 181.802C1351.46 183.316 1350.61 184.564 1349.35 185.546C1348.11 186.506 1346.6 186.986 1344.81 186.986ZM1339.85 176.586H1349.22C1349.1 174.943 1348.62 173.738 1347.78 172.97C1346.97 172.202 1345.94 171.818 1344.68 171.818C1343.38 171.818 1342.3 172.223 1341.45 173.034C1340.62 173.823 1340.08 175.007 1339.85 176.586ZM1355.65 186.602V169.642H1358.11L1358.21 173.962L1357.89 173.674C1358.1 172.671 1358.48 171.85 1359.01 171.21C1359.54 170.548 1360.18 170.058 1360.93 169.738C1361.7 169.418 1362.52 169.258 1363.39 169.258C1364.69 169.258 1365.76 169.546 1366.59 170.122C1367.45 170.698 1368.08 171.476 1368.48 172.458C1368.91 173.418 1369.12 174.495 1369.12 175.69V186.602H1366.43V176.458C1366.43 175.412 1366.3 174.538 1366.05 173.834C1365.81 173.108 1365.43 172.564 1364.9 172.202C1364.36 171.818 1363.67 171.626 1362.82 171.626C1361.52 171.626 1360.44 172.042 1359.58 172.874C1358.75 173.684 1358.34 174.879 1358.34 176.458V186.602H1355.65ZM1379.01 186.602C1377.47 186.602 1376.33 186.25 1375.59 185.546C1374.86 184.842 1374.5 183.743 1374.5 182.25V165.674H1377.19V182.186C1377.19 182.954 1377.36 183.487 1377.7 183.786C1378.04 184.084 1378.56 184.234 1379.27 184.234H1381.7V186.602H1379.01ZM1372 172.01V169.642H1381.7V172.01H1372ZM1384.12 191.594L1385.65 186.602H1384.02V182.986H1387.64V186.154L1385.72 191.594H1384.12ZM1403.87 186.986C1402.12 186.986 1400.72 186.58 1399.67 185.77C1398.65 184.959 1398.14 183.828 1398.14 182.378C1398.14 180.927 1398.56 179.786 1399.42 178.954C1400.27 178.122 1401.63 177.535 1403.48 177.194L1409.5 176.074C1409.5 174.644 1409.16 173.578 1408.47 172.874C1407.81 172.17 1406.81 171.818 1405.47 171.818C1404.29 171.818 1403.36 172.084 1402.68 172.618C1402 173.13 1401.53 173.876 1401.27 174.858L1398.43 174.634C1398.75 173.034 1399.51 171.743 1400.73 170.762C1401.97 169.759 1403.55 169.258 1405.47 169.258C1407.64 169.258 1409.31 169.876 1410.46 171.114C1411.61 172.33 1412.19 174.015 1412.19 176.17V183.178C1412.19 183.562 1412.25 183.839 1412.38 184.01C1412.53 184.159 1412.76 184.234 1413.08 184.234H1413.75V186.602C1413.67 186.623 1413.53 186.634 1413.34 186.634C1413.15 186.655 1412.94 186.666 1412.73 186.666C1411.96 186.666 1411.33 186.548 1410.84 186.314C1410.37 186.058 1410.03 185.674 1409.82 185.162C1409.6 184.628 1409.5 183.935 1409.5 183.082L1409.82 183.146C1409.67 183.871 1409.31 184.532 1408.73 185.13C1408.15 185.706 1407.44 186.164 1406.59 186.506C1405.73 186.826 1404.83 186.986 1403.87 186.986ZM1404.12 184.618C1405.25 184.618 1406.21 184.404 1407 183.978C1407.81 183.53 1408.43 182.932 1408.86 182.186C1409.28 181.418 1409.5 180.564 1409.5 179.626V178.41L1403.99 179.434C1402.84 179.647 1402.04 179.978 1401.59 180.426C1401.17 180.852 1400.95 181.418 1400.95 182.122C1400.95 182.911 1401.23 183.53 1401.79 183.978C1402.36 184.404 1403.14 184.618 1404.12 184.618ZM1416.63 186.602V169.642H1419.09L1419.19 173.962L1418.87 173.674C1419.08 172.671 1419.46 171.85 1419.99 171.21C1420.52 170.548 1421.16 170.058 1421.91 169.738C1422.68 169.418 1423.5 169.258 1424.37 169.258C1425.68 169.258 1426.74 169.546 1427.57 170.122C1428.43 170.698 1429.06 171.476 1429.46 172.458C1429.89 173.418 1430.1 174.495 1430.1 175.69V186.602H1427.41V176.458C1427.41 175.412 1427.29 174.538 1427.03 173.834C1426.8 173.108 1426.41 172.564 1425.88 172.202C1425.34 171.818 1424.65 171.626 1423.8 171.626C1422.5 171.626 1421.42 172.042 1420.57 172.874C1419.73 173.684 1419.32 174.879 1419.32 176.458V186.602H1416.63ZM1440.7 186.986C1439.23 186.986 1437.95 186.623 1436.86 185.898C1435.8 185.172 1434.98 184.148 1434.4 182.826C1433.82 181.503 1433.54 179.935 1433.54 178.122C1433.54 176.308 1433.82 174.74 1434.4 173.418C1434.98 172.095 1435.8 171.071 1436.86 170.346C1437.95 169.62 1439.23 169.258 1440.7 169.258C1441.84 169.258 1442.87 169.503 1443.81 169.994C1444.75 170.463 1445.45 171.135 1445.92 172.01V163.882H1448.61V186.602H1446.18L1446.08 184.042C1445.61 184.959 1444.9 185.684 1443.94 186.218C1442.98 186.73 1441.9 186.986 1440.7 186.986ZM1441.25 184.426C1442.25 184.426 1443.09 184.17 1443.78 183.658C1444.48 183.146 1445.01 182.42 1445.38 181.482C1445.74 180.522 1445.92 179.402 1445.92 178.122C1445.92 176.799 1445.74 175.668 1445.38 174.73C1445.01 173.791 1444.48 173.076 1443.78 172.586C1443.09 172.074 1442.25 171.818 1441.25 171.818C1439.76 171.818 1438.56 172.383 1437.66 173.514C1436.79 174.623 1436.35 176.159 1436.35 178.122C1436.35 180.063 1436.79 181.599 1437.66 182.73C1438.56 183.86 1439.76 184.426 1441.25 184.426ZM958.494 236.986C956.744 236.986 955.347 236.58 954.302 235.77C953.278 234.959 952.766 233.828 952.766 232.378C952.766 230.927 953.192 229.786 954.046 228.954C954.899 228.122 956.254 227.535 958.11 227.194L964.126 226.074C964.126 224.644 963.784 223.578 963.102 222.874C962.44 222.17 961.438 221.818 960.094 221.818C958.92 221.818 957.992 222.084 957.31 222.618C956.627 223.13 956.158 223.876 955.902 224.858L953.054 224.634C953.374 223.034 954.142 221.743 955.358 220.762C956.595 219.759 958.174 219.258 960.094 219.258C962.27 219.258 963.934 219.876 965.086 221.114C966.238 222.33 966.814 224.015 966.814 226.17V233.178C966.814 233.562 966.878 233.839 967.006 234.01C967.155 234.159 967.39 234.234 967.71 234.234H968.382V236.602C968.296 236.623 968.158 236.634 967.966 236.634C967.774 236.655 967.571 236.666 967.358 236.666C966.59 236.666 965.96 236.548 965.47 236.314C965 236.058 964.659 235.674 964.446 235.162C964.232 234.628 964.126 233.935 964.126 233.082L964.446 233.146C964.296 233.871 963.934 234.532 963.358 235.13C962.782 235.706 962.067 236.164 961.214 236.506C960.36 236.826 959.454 236.986 958.494 236.986ZM958.75 234.618C959.88 234.618 960.84 234.404 961.63 233.978C962.44 233.53 963.059 232.932 963.486 232.186C963.912 231.418 964.126 230.564 964.126 229.626V228.41L958.622 229.434C957.47 229.647 956.67 229.978 956.222 230.426C955.795 230.852 955.582 231.418 955.582 232.122C955.582 232.911 955.859 233.53 956.414 233.978C956.99 234.404 957.768 234.618 958.75 234.618ZM976.638 236.986C974.953 236.986 973.598 236.42 972.574 235.29C971.571 234.138 971.07 232.559 971.07 230.554V219.642H973.758V229.818C973.758 231.46 974.046 232.676 974.622 233.466C975.219 234.234 976.126 234.618 977.342 234.618C978.686 234.618 979.742 234.191 980.51 233.338C981.278 232.463 981.662 231.268 981.662 229.754V219.642H984.35V236.602H981.79V232.41L982.206 232.634C981.865 234.02 981.214 235.098 980.254 235.866C979.294 236.612 978.089 236.986 976.638 236.986ZM995.02 236.986C993.548 236.986 992.268 236.623 991.18 235.898C990.113 235.172 989.292 234.148 988.716 232.826C988.14 231.503 987.852 229.935 987.852 228.122C987.852 226.308 988.14 224.74 988.716 223.418C989.292 222.095 990.113 221.071 991.18 220.346C992.268 219.62 993.548 219.258 995.02 219.258C996.15 219.258 997.185 219.503 998.124 219.994C999.062 220.463 999.766 221.135 1000.24 222.01V213.882H1002.92V236.602H1000.49L1000.4 234.042C999.926 234.959 999.212 235.684 998.252 236.218C997.292 236.73 996.214 236.986 995.02 236.986ZM995.564 234.426C996.566 234.426 997.409 234.17 998.092 233.658C998.796 233.146 999.329 232.42 999.692 231.482C1000.05 230.522 1000.24 229.402 1000.24 228.122C1000.24 226.799 1000.05 225.668 999.692 224.73C999.329 223.791 998.796 223.076 998.092 222.586C997.409 222.074 996.566 221.818 995.564 221.818C994.07 221.818 992.876 222.383 991.98 223.514C991.105 224.623 990.668 226.159 990.668 228.122C990.668 230.063 991.105 231.599 991.98 232.73C992.876 233.86 994.07 234.426 995.564 234.426ZM1007.25 236.602V219.642H1009.94V236.602H1007.25ZM1007.19 216.986V213.85H1010V216.986H1007.19ZM1019.83 236.602C1018.29 236.602 1017.15 236.25 1016.41 235.546C1015.68 234.842 1015.32 233.743 1015.32 232.25V215.674H1018.01V232.186C1018.01 232.954 1018.18 233.487 1018.52 233.786C1018.86 234.084 1019.38 234.234 1020.09 234.234H1022.52V236.602H1019.83ZM1012.82 222.01V219.642H1022.52V222.01H1012.82ZM1040.04 236.602C1038.5 236.602 1037.36 236.25 1036.62 235.546C1035.89 234.842 1035.53 233.743 1035.53 232.25V215.674H1038.22V232.186C1038.22 232.954 1038.39 233.487 1038.73 233.786C1039.07 234.084 1039.59 234.234 1040.3 234.234H1042.73V236.602H1040.04ZM1033.03 222.01V219.642H1042.73V222.01H1033.03ZM1046.36 236.602V219.642H1048.73L1048.86 223.93L1048.6 223.834C1048.81 222.383 1049.27 221.327 1049.98 220.666C1050.7 219.983 1051.66 219.642 1052.86 219.642H1054.52V222.202H1052.89C1052.03 222.202 1051.32 222.362 1050.74 222.682C1050.19 222.98 1049.76 223.439 1049.46 224.058C1049.19 224.655 1049.05 225.423 1049.05 226.362V236.602H1046.36ZM1061.62 236.986C1059.87 236.986 1058.47 236.58 1057.43 235.77C1056.4 234.959 1055.89 233.828 1055.89 232.378C1055.89 230.927 1056.32 229.786 1057.17 228.954C1058.03 228.122 1059.38 227.535 1061.24 227.194L1067.25 226.074C1067.25 224.644 1066.91 223.578 1066.23 222.874C1065.57 222.17 1064.56 221.818 1063.22 221.818C1062.05 221.818 1061.12 222.084 1060.44 222.618C1059.75 223.13 1059.28 223.876 1059.03 224.858L1056.18 224.634C1056.5 223.034 1057.27 221.743 1058.48 220.762C1059.72 219.759 1061.3 219.258 1063.22 219.258C1065.4 219.258 1067.06 219.876 1068.21 221.114C1069.36 222.33 1069.94 224.015 1069.94 226.17V233.178C1069.94 233.562 1070 233.839 1070.13 234.01C1070.28 234.159 1070.52 234.234 1070.84 234.234H1071.51V236.602C1071.42 236.623 1071.28 236.634 1071.09 236.634C1070.9 236.655 1070.7 236.666 1070.48 236.666C1069.72 236.666 1069.09 236.548 1068.6 236.314C1068.13 236.058 1067.79 235.674 1067.57 235.162C1067.36 234.628 1067.25 233.935 1067.25 233.082L1067.57 233.146C1067.42 233.871 1067.06 234.532 1066.48 235.13C1065.91 235.706 1065.19 236.164 1064.34 236.506C1063.49 236.826 1062.58 236.986 1061.62 236.986ZM1061.88 234.618C1063.01 234.618 1063.97 234.404 1064.76 233.978C1065.57 233.53 1066.19 232.932 1066.61 232.186C1067.04 231.418 1067.25 230.564 1067.25 229.626V228.41L1061.75 229.434C1060.6 229.647 1059.8 229.978 1059.35 230.426C1058.92 230.852 1058.71 231.418 1058.71 232.122C1058.71 232.911 1058.99 233.53 1059.54 233.978C1060.12 234.404 1060.89 234.618 1061.88 234.618ZM1074.26 236.602V219.642H1076.95V236.602H1074.26ZM1074.19 216.986V213.85H1077.01V216.986H1074.19ZM1084.93 236.602C1083.95 236.602 1083.15 236.346 1082.53 235.834C1081.91 235.322 1081.6 234.511 1081.6 233.402V213.882H1084.29V233.178C1084.29 233.519 1084.37 233.786 1084.54 233.978C1084.73 234.148 1085 234.234 1085.34 234.234H1086.81V236.602H1084.93ZM1095.96 236.986C1094.44 236.986 1093.15 236.74 1092.09 236.25C1091.04 235.759 1090.22 235.087 1089.62 234.234C1089.05 233.359 1088.72 232.367 1088.63 231.258L1091.45 231.066C1091.62 232.09 1092.05 232.911 1092.76 233.53C1093.46 234.127 1094.53 234.426 1095.96 234.426C1097.11 234.426 1098.03 234.244 1098.71 233.882C1099.41 233.498 1099.77 232.89 1099.77 232.058C1099.77 231.61 1099.66 231.236 1099.45 230.938C1099.23 230.639 1098.82 230.383 1098.2 230.17C1097.58 229.935 1096.66 229.711 1095.45 229.498C1093.83 229.199 1092.55 228.836 1091.61 228.41C1090.69 227.962 1090.03 227.418 1089.62 226.778C1089.24 226.116 1089.05 225.338 1089.05 224.442C1089.05 222.927 1089.6 221.69 1090.71 220.73C1091.82 219.748 1093.4 219.258 1095.45 219.258C1096.83 219.258 1098 219.514 1098.93 220.026C1099.89 220.516 1100.64 221.178 1101.17 222.01C1101.73 222.82 1102.09 223.716 1102.26 224.698L1099.45 224.89C1099.32 224.292 1099.08 223.77 1098.74 223.322C1098.4 222.852 1097.95 222.49 1097.4 222.234C1096.84 221.956 1096.18 221.818 1095.41 221.818C1094.2 221.818 1093.3 222.052 1092.73 222.522C1092.15 222.991 1091.86 223.588 1091.86 224.314C1091.86 224.868 1091.99 225.327 1092.25 225.69C1092.52 226.031 1092.96 226.319 1093.56 226.554C1094.16 226.767 1094.96 226.959 1095.96 227.13C1097.69 227.428 1099.03 227.791 1099.99 228.218C1100.95 228.644 1101.62 229.167 1102.01 229.786C1102.39 230.404 1102.58 231.162 1102.58 232.058C1102.58 233.103 1102.28 233.999 1101.69 234.746C1101.11 235.471 1100.32 236.026 1099.32 236.41C1098.34 236.794 1097.22 236.986 1095.96 236.986ZM1115.91 236.602V218.106C1115.91 216.847 1116.27 215.834 1117 215.066C1117.72 214.276 1118.85 213.882 1120.39 213.882H1123.08V216.25H1120.58C1119.92 216.25 1119.42 216.431 1119.08 216.794C1118.76 217.156 1118.6 217.658 1118.6 218.298V236.602H1115.91ZM1113.6 222.01V219.642H1122.85V222.01H1113.6ZM1131.93 236.986C1130.37 236.986 1129 236.623 1127.83 235.898C1126.66 235.172 1125.75 234.148 1125.11 232.826C1124.47 231.482 1124.15 229.914 1124.15 228.122C1124.15 226.308 1124.47 224.74 1125.11 223.418C1125.75 222.095 1126.66 221.071 1127.83 220.346C1129 219.62 1130.37 219.258 1131.93 219.258C1133.48 219.258 1134.84 219.62 1135.99 220.346C1137.16 221.071 1138.07 222.095 1138.71 223.418C1139.35 224.74 1139.67 226.308 1139.67 228.122C1139.67 229.914 1139.35 231.482 1138.71 232.826C1138.07 234.148 1137.16 235.172 1135.99 235.898C1134.84 236.623 1133.48 236.986 1131.93 236.986ZM1131.93 234.426C1133.48 234.426 1134.69 233.871 1135.54 232.762C1136.42 231.631 1136.85 230.084 1136.85 228.122C1136.85 226.159 1136.42 224.623 1135.54 223.514C1134.69 222.383 1133.48 221.818 1131.93 221.818C1130.37 221.818 1129.15 222.383 1128.28 223.514C1127.4 224.623 1126.97 226.159 1126.97 228.122C1126.97 230.084 1127.4 231.631 1128.28 232.762C1129.15 233.871 1130.37 234.426 1131.93 234.426ZM1143.17 236.602V219.642H1145.54L1145.67 223.93L1145.41 223.834C1145.63 222.383 1146.09 221.327 1146.79 220.666C1147.52 219.983 1148.48 219.642 1149.67 219.642H1151.33V222.202H1149.7C1148.85 222.202 1148.13 222.362 1147.56 222.682C1147 222.98 1146.58 223.439 1146.28 224.058C1146 224.655 1145.86 225.423 1145.86 226.362V236.602H1143.17ZM1169.19 236.602C1167.65 236.602 1166.51 236.25 1165.76 235.546C1165.04 234.842 1164.67 233.743 1164.67 232.25V215.674H1167.36V232.186C1167.36 232.954 1167.53 233.487 1167.87 233.786C1168.22 234.084 1168.74 234.234 1169.44 234.234H1171.87V236.602H1169.19ZM1162.18 222.01V219.642H1171.87V222.01H1162.18ZM1181.47 236.986C1179.92 236.986 1178.55 236.623 1177.38 235.898C1176.2 235.172 1175.3 234.148 1174.66 232.826C1174.02 231.482 1173.7 229.914 1173.7 228.122C1173.7 226.308 1174.02 224.74 1174.66 223.418C1175.3 222.095 1176.2 221.071 1177.38 220.346C1178.55 219.62 1179.92 219.258 1181.47 219.258C1183.03 219.258 1184.39 219.62 1185.54 220.346C1186.71 221.071 1187.62 222.095 1188.26 223.418C1188.9 224.74 1189.22 226.308 1189.22 228.122C1189.22 229.914 1188.9 231.482 1188.26 232.826C1187.62 234.148 1186.71 235.172 1185.54 235.898C1184.39 236.623 1183.03 236.986 1181.47 236.986ZM1181.47 234.426C1183.03 234.426 1184.24 233.871 1185.09 232.762C1185.96 231.631 1186.4 230.084 1186.4 228.122C1186.4 226.159 1185.96 224.623 1185.09 223.514C1184.24 222.383 1183.03 221.818 1181.47 221.818C1179.92 221.818 1178.7 222.383 1177.83 223.514C1176.95 224.623 1176.51 226.159 1176.51 228.122C1176.51 230.084 1176.95 231.631 1177.83 232.762C1178.7 233.871 1179.92 234.426 1181.47 234.426ZM1199.35 236.986C1197.79 236.986 1196.42 236.623 1195.25 235.898C1194.08 235.172 1193.17 234.148 1192.53 232.826C1191.89 231.482 1191.57 229.914 1191.57 228.122C1191.57 226.308 1191.89 224.74 1192.53 223.418C1193.17 222.095 1194.08 221.071 1195.25 220.346C1196.42 219.62 1197.79 219.258 1199.35 219.258C1200.9 219.258 1202.26 219.62 1203.41 220.346C1204.58 221.071 1205.49 222.095 1206.13 223.418C1206.77 224.74 1207.09 226.308 1207.09 228.122C1207.09 229.914 1206.77 231.482 1206.13 232.826C1205.49 234.148 1204.58 235.172 1203.41 235.898C1202.26 236.623 1200.9 236.986 1199.35 236.986ZM1199.35 234.426C1200.9 234.426 1202.11 233.871 1202.96 232.762C1203.84 231.631 1204.27 230.084 1204.27 228.122C1204.27 226.159 1203.84 224.623 1202.96 223.514C1202.11 222.383 1200.9 221.818 1199.35 221.818C1197.79 221.818 1196.57 222.383 1195.7 223.514C1194.82 224.623 1194.39 226.159 1194.39 228.122C1194.39 230.084 1194.82 231.631 1195.7 232.762C1196.57 233.871 1197.79 234.426 1199.35 234.426ZM1214.08 236.602C1213.1 236.602 1212.3 236.346 1211.68 235.834C1211.06 235.322 1210.75 234.511 1210.75 233.402V213.882H1213.44V233.178C1213.44 233.519 1213.52 233.786 1213.69 233.978C1213.88 234.148 1214.15 234.234 1214.49 234.234H1215.96V236.602H1214.08ZM1217.97 228.538V226.01H1228.56V228.538H1217.97ZM1237.93 236.986C1236.25 236.986 1234.89 236.42 1233.87 235.29C1232.87 234.138 1232.37 232.559 1232.37 230.554V219.642H1235.05V229.818C1235.05 231.46 1235.34 232.676 1235.92 233.466C1236.52 234.234 1237.42 234.618 1238.64 234.618C1239.98 234.618 1241.04 234.191 1241.81 233.338C1242.57 232.463 1242.96 231.268 1242.96 229.754V219.642H1245.65V236.602H1243.09V232.41L1243.5 232.634C1243.16 234.02 1242.51 235.098 1241.55 235.866C1240.59 236.612 1239.38 236.986 1237.93 236.986ZM1256.48 236.986C1254.96 236.986 1253.67 236.74 1252.6 236.25C1251.56 235.759 1250.74 235.087 1250.14 234.234C1249.56 233.359 1249.23 232.367 1249.15 231.258L1251.96 231.066C1252.13 232.09 1252.57 232.911 1253.28 233.53C1253.98 234.127 1255.05 234.426 1256.48 234.426C1257.63 234.426 1258.55 234.244 1259.23 233.882C1259.93 233.498 1260.28 232.89 1260.28 232.058C1260.28 231.61 1260.18 231.236 1259.96 230.938C1259.75 230.639 1259.33 230.383 1258.72 230.17C1258.1 229.935 1257.18 229.711 1255.96 229.498C1254.34 229.199 1253.06 228.836 1252.12 228.41C1251.21 227.962 1250.55 227.418 1250.14 226.778C1249.76 226.116 1249.56 225.338 1249.56 224.442C1249.56 222.927 1250.12 221.69 1251.23 220.73C1252.34 219.748 1253.92 219.258 1255.96 219.258C1257.35 219.258 1258.51 219.514 1259.45 220.026C1260.41 220.516 1261.16 221.178 1261.69 222.01C1262.25 222.82 1262.61 223.716 1262.78 224.698L1259.96 224.89C1259.84 224.292 1259.6 223.77 1259.26 223.322C1258.92 222.852 1258.47 222.49 1257.92 222.234C1257.36 221.956 1256.7 221.818 1255.93 221.818C1254.72 221.818 1253.82 222.052 1253.24 222.522C1252.67 222.991 1252.38 223.588 1252.38 224.314C1252.38 224.868 1252.51 225.327 1252.76 225.69C1253.04 226.031 1253.48 226.319 1254.08 226.554C1254.67 226.767 1255.47 226.959 1256.48 227.13C1258.2 227.428 1259.55 227.791 1260.51 228.218C1261.47 228.644 1262.14 229.167 1262.52 229.786C1262.91 230.404 1263.1 231.162 1263.1 232.058C1263.1 233.103 1262.8 233.999 1262.2 234.746C1261.63 235.471 1260.84 236.026 1259.84 236.41C1258.85 236.794 1257.73 236.986 1256.48 236.986ZM1266.61 236.602V219.642H1269.3V236.602H1266.61ZM1266.54 216.986V213.85H1269.36V216.986H1266.54ZM1274.57 236.602V219.642H1277.04L1277.13 223.962L1276.81 223.674C1277.03 222.671 1277.4 221.85 1277.93 221.21C1278.47 220.548 1279.11 220.058 1279.85 219.738C1280.62 219.418 1281.44 219.258 1282.32 219.258C1283.62 219.258 1284.69 219.546 1285.52 220.122C1286.37 220.698 1287 221.476 1287.41 222.458C1287.83 223.418 1288.05 224.495 1288.05 225.69V236.602H1285.36V226.458C1285.36 225.412 1285.23 224.538 1284.97 223.834C1284.74 223.108 1284.36 222.564 1283.82 222.202C1283.29 221.818 1282.6 221.626 1281.74 221.626C1280.44 221.626 1279.36 222.042 1278.51 222.874C1277.68 223.684 1277.26 224.879 1277.26 226.458V236.602H1274.57ZM1299.06 241.786C1297.85 241.786 1296.75 241.583 1295.77 241.178C1294.79 240.772 1293.97 240.196 1293.3 239.45C1292.64 238.703 1292.2 237.839 1291.96 236.858L1294.78 236.666C1295.03 237.455 1295.48 238.074 1296.12 238.522C1296.78 238.991 1297.76 239.226 1299.06 239.226C1300.6 239.226 1301.77 238.916 1302.58 238.298C1303.42 237.679 1303.83 236.751 1303.83 235.514V232.762C1303.43 233.658 1302.78 234.372 1301.88 234.906C1300.98 235.439 1299.98 235.706 1298.87 235.706C1297.44 235.706 1296.16 235.354 1295.03 234.65C1293.92 233.946 1293.05 232.975 1292.41 231.738C1291.79 230.5 1291.48 229.082 1291.48 227.482C1291.48 225.86 1291.79 224.442 1292.41 223.226C1293.03 221.988 1293.88 221.018 1294.97 220.314C1296.08 219.61 1297.34 219.258 1298.74 219.258C1299.94 219.258 1301.01 219.535 1301.94 220.09C1302.9 220.644 1303.58 221.391 1303.96 222.33V219.642H1306.52V235.45C1306.52 236.772 1306.22 237.903 1305.62 238.842C1305.03 239.802 1304.17 240.527 1303.06 241.018C1301.96 241.53 1300.62 241.786 1299.06 241.786ZM1299 233.146C1300.45 233.146 1301.61 232.644 1302.49 231.642C1303.36 230.618 1303.81 229.231 1303.83 227.482C1303.85 226.308 1303.66 225.306 1303.26 224.474C1302.87 223.62 1302.31 222.97 1301.56 222.522C1300.84 222.052 1299.98 221.818 1299 221.818C1297.51 221.818 1296.34 222.33 1295.51 223.354C1294.7 224.356 1294.3 225.732 1294.3 227.482C1294.3 229.231 1294.71 230.618 1295.54 231.642C1296.4 232.644 1297.55 233.146 1299 233.146ZM1317.39 236.602L1325.58 213.882H1329.3L1337.49 236.602H1334.48L1332.21 230.138H1322.67L1320.4 236.602H1317.39ZM1323.6 227.45H1331.28L1327.44 216.282L1323.6 227.45ZM1340.29 236.602V213.882H1343.04V236.602H1340.29ZM1360.78 236.986C1359.03 236.986 1357.64 236.58 1356.59 235.77C1355.57 234.959 1355.06 233.828 1355.06 232.378C1355.06 230.927 1355.48 229.786 1356.34 228.954C1357.19 228.122 1358.54 227.535 1360.4 227.194L1366.42 226.074C1366.42 224.644 1366.07 223.578 1365.39 222.874C1364.73 222.17 1363.73 221.818 1362.38 221.818C1361.21 221.818 1360.28 222.084 1359.6 222.618C1358.92 223.13 1358.45 223.876 1358.19 224.858L1355.34 224.634C1355.66 223.034 1356.43 221.743 1357.65 220.762C1358.88 219.759 1360.46 219.258 1362.38 219.258C1364.56 219.258 1366.22 219.876 1367.38 221.114C1368.53 222.33 1369.1 224.015 1369.1 226.17V233.178C1369.1 233.562 1369.17 233.839 1369.3 234.01C1369.44 234.159 1369.68 234.234 1370 234.234H1370.67V236.602C1370.59 236.623 1370.45 236.634 1370.26 236.634C1370.06 236.655 1369.86 236.666 1369.65 236.666C1368.88 236.666 1368.25 236.548 1367.76 236.314C1367.29 236.058 1366.95 235.674 1366.74 235.162C1366.52 234.628 1366.42 233.935 1366.42 233.082L1366.74 233.146C1366.59 233.871 1366.22 234.532 1365.65 235.13C1365.07 235.706 1364.36 236.164 1363.5 236.506C1362.65 236.826 1361.74 236.986 1360.78 236.986ZM1361.04 234.618C1362.17 234.618 1363.13 234.404 1363.92 233.978C1364.73 233.53 1365.35 232.932 1365.78 232.186C1366.2 231.418 1366.42 230.564 1366.42 229.626V228.41L1360.91 229.434C1359.76 229.647 1358.96 229.978 1358.51 230.426C1358.08 230.852 1357.87 231.418 1357.87 232.122C1357.87 232.911 1358.15 233.53 1358.7 233.978C1359.28 234.404 1360.06 234.618 1361.04 234.618ZM1379.92 241.786C1378.7 241.786 1377.6 241.583 1376.62 241.178C1375.64 240.772 1374.82 240.196 1374.16 239.45C1373.5 238.703 1373.05 237.839 1372.81 236.858L1375.63 236.666C1375.89 237.455 1376.33 238.074 1376.97 238.522C1377.63 238.991 1378.62 239.226 1379.92 239.226C1381.45 239.226 1382.63 238.916 1383.44 238.298C1384.27 237.679 1384.69 236.751 1384.69 235.514V232.762C1384.28 233.658 1383.63 234.372 1382.73 234.906C1381.84 235.439 1380.83 235.706 1379.73 235.706C1378.3 235.706 1377.02 235.354 1375.89 234.65C1374.78 233.946 1373.9 232.975 1373.26 231.738C1372.64 230.5 1372.33 229.082 1372.33 227.482C1372.33 225.86 1372.64 224.442 1373.26 223.226C1373.88 221.988 1374.73 221.018 1375.82 220.314C1376.93 219.61 1378.19 219.258 1379.6 219.258C1380.79 219.258 1381.86 219.535 1382.8 220.09C1383.76 220.644 1384.43 221.391 1384.81 222.33V219.642H1387.37V235.45C1387.37 236.772 1387.07 237.903 1386.48 238.842C1385.88 239.802 1385.03 240.527 1383.92 241.018C1382.81 241.53 1381.47 241.786 1379.92 241.786ZM1379.85 233.146C1381.3 233.146 1382.47 232.644 1383.34 231.642C1384.22 230.618 1384.66 229.231 1384.69 227.482C1384.71 226.308 1384.51 225.306 1384.11 224.474C1383.73 223.62 1383.16 222.97 1382.41 222.522C1381.69 222.052 1380.83 221.818 1379.85 221.818C1378.36 221.818 1377.2 222.33 1376.37 223.354C1375.55 224.356 1375.15 225.732 1375.15 227.482C1375.15 229.231 1375.57 230.618 1376.4 231.642C1377.25 232.644 1378.4 233.146 1379.85 233.146ZM1398.64 236.986C1397.04 236.986 1395.65 236.623 1394.48 235.898C1393.32 235.172 1392.43 234.148 1391.79 232.826C1391.17 231.482 1390.86 229.914 1390.86 228.122C1390.86 226.33 1391.17 224.772 1391.79 223.45C1392.43 222.127 1393.31 221.103 1394.44 220.378C1395.6 219.631 1396.95 219.258 1398.51 219.258C1399.98 219.258 1401.28 219.61 1402.41 220.314C1403.54 220.996 1404.42 221.999 1405.04 223.322C1405.68 224.644 1406 226.255 1406 228.154V228.954H1393.68C1393.78 230.767 1394.26 232.132 1395.12 233.05C1395.99 233.967 1397.16 234.426 1398.64 234.426C1399.75 234.426 1400.65 234.17 1401.36 233.658C1402.08 233.124 1402.58 232.431 1402.86 231.578L1405.74 231.802C1405.29 233.316 1404.44 234.564 1403.18 235.546C1401.94 236.506 1400.43 236.986 1398.64 236.986ZM1393.68 226.586H1403.05C1402.92 224.943 1402.44 223.738 1401.61 222.97C1400.8 222.202 1399.77 221.818 1398.51 221.818C1397.21 221.818 1396.13 222.223 1395.28 223.034C1394.44 223.823 1393.91 225.007 1393.68 226.586ZM1409.48 236.602V219.642H1411.94L1412.04 223.962L1411.72 223.674C1411.93 222.671 1412.3 221.85 1412.84 221.21C1413.37 220.548 1414.01 220.058 1414.76 219.738C1415.53 219.418 1416.35 219.258 1417.22 219.258C1418.52 219.258 1419.59 219.546 1420.42 220.122C1421.27 220.698 1421.9 221.476 1422.31 222.458C1422.74 223.418 1422.95 224.495 1422.95 225.69V236.602H1420.26V226.458C1420.26 225.412 1420.13 224.538 1419.88 223.834C1419.64 223.108 1419.26 222.564 1418.73 222.202C1418.19 221.818 1417.5 221.626 1416.65 221.626C1415.34 221.626 1414.27 222.042 1413.41 222.874C1412.58 223.684 1412.17 224.879 1412.17 226.458V236.602H1409.48ZM1432.84 236.602C1431.3 236.602 1430.16 236.25 1429.41 235.546C1428.69 234.842 1428.33 233.743 1428.33 232.25V215.674H1431.01V232.186C1431.01 232.954 1431.18 233.487 1431.53 233.786C1431.87 234.084 1432.39 234.234 1433.09 234.234H1435.53V236.602H1432.84ZM1425.83 222.01V219.642H1435.53V222.01H1425.83ZM1444.68 236.986C1443.16 236.986 1441.87 236.74 1440.81 236.25C1439.76 235.759 1438.94 235.087 1438.34 234.234C1437.77 233.359 1437.43 232.367 1437.35 231.258L1440.17 231.066C1440.34 232.09 1440.77 232.911 1441.48 233.53C1442.18 234.127 1443.25 234.426 1444.68 234.426C1445.83 234.426 1446.75 234.244 1447.43 233.882C1448.13 233.498 1448.49 232.89 1448.49 232.058C1448.49 231.61 1448.38 231.236 1448.17 230.938C1447.95 230.639 1447.54 230.383 1446.92 230.17C1446.3 229.935 1445.38 229.711 1444.17 229.498C1442.54 229.199 1441.26 228.836 1440.33 228.41C1439.41 227.962 1438.75 227.418 1438.34 226.778C1437.96 226.116 1437.77 225.338 1437.77 224.442C1437.77 222.927 1438.32 221.69 1439.43 220.73C1440.54 219.748 1442.12 219.258 1444.17 219.258C1445.55 219.258 1446.71 219.514 1447.65 220.026C1448.61 220.516 1449.36 221.178 1449.89 222.01C1450.45 222.82 1450.81 223.716 1450.98 224.698L1448.17 224.89C1448.04 224.292 1447.8 223.77 1447.46 223.322C1447.12 222.852 1446.67 222.49 1446.12 222.234C1445.56 221.956 1444.9 221.818 1444.13 221.818C1442.92 221.818 1442.02 222.052 1441.45 222.522C1440.87 222.991 1440.58 223.588 1440.58 224.314C1440.58 224.868 1440.71 225.327 1440.97 225.69C1441.24 226.031 1441.68 226.319 1442.28 226.554C1442.87 226.767 1443.67 226.959 1444.68 227.13C1446.41 227.428 1447.75 227.791 1448.71 228.218C1449.67 228.644 1450.34 229.167 1450.73 229.786C1451.11 230.404 1451.3 231.162 1451.3 232.058C1451.3 233.103 1451 233.999 1450.41 234.746C1449.83 235.471 1449.04 236.026 1448.04 236.41C1447.06 236.794 1445.94 236.986 1444.68 236.986ZM1453.97 236.602V232.986H1457.59V236.602H1453.97Z" fill="#D7E4E1"/>
<path d="M742.434 190.602H917.768V192.202H742.434V190.602ZM931.885 190.602H1091.69V192.202H931.885V190.602ZM1105.81 190.602H1106.77V192.202H1105.81V190.602ZM1112.65 190.602H1176.05V192.202H1112.65V190.602ZM1184.33 190.602H1382.61V192.202H1184.33V190.602ZM951.358 240.602H1103.84V242.202H951.358V240.602Z" fill="#D7E4E1"/>
<path d="M176.383 146.155L185.985 133.023H175.18L167.804 143.111L164.52 147.603V133H156V168H164.517V153.397L167.8 157.889L175.195 168H186L176.379 154.845C174.513 152.291 174.513 148.709 176.379 146.155H176.383Z" fill="white"/>
<path d="M215.075 138.201C213.525 136.573 211.672 135.299 209.52 134.381C207.369 133.463 205.021 133 202.479 133C199.937 133 197.554 133.459 195.416 134.381C193.279 135.303 191.44 136.573 189.904 138.201C188.368 139.828 187.166 141.736 186.301 143.921C185.436 146.106 185 148.466 185 151C185 153.534 185.432 155.894 186.301 158.079C187.166 160.264 188.368 162.172 189.904 163.799C191.44 165.427 193.279 166.701 195.416 167.619C197.554 168.537 199.909 169 202.479 169C205.049 169 207.369 168.541 209.52 167.619C211.672 166.701 213.525 165.427 215.075 163.799C216.625 162.172 217.834 160.264 218.699 158.079C219.564 155.894 220 153.534 220 151C220 148.466 219.568 146.106 218.699 143.921C217.834 141.736 216.625 139.828 215.075 138.201ZM210.695 154.756C210.22 155.901 209.57 156.895 208.747 157.741C207.921 158.587 206.972 159.239 205.896 159.71C204.82 160.176 203.681 160.412 202.479 160.412C201.277 160.412 200.138 160.18 199.062 159.71C197.986 159.243 197.044 158.587 196.232 157.741C195.42 156.899 194.78 155.901 194.305 154.756C193.831 153.61 193.592 152.358 193.592 151C193.592 149.642 193.827 148.394 194.305 147.244C194.78 146.099 195.423 145.105 196.232 144.259C197.04 143.417 197.986 142.761 199.062 142.29C200.138 141.824 201.277 141.588 202.479 141.588C203.681 141.588 204.82 141.824 205.896 142.29C206.972 142.757 207.921 143.413 208.747 144.259C209.57 145.105 210.22 146.099 210.695 147.244C211.169 148.39 211.408 149.642 211.408 151C211.408 152.358 211.169 153.61 210.695 154.756Z" fill="white"/>
<path d="M246.972 154.399L232.069 133H224V168H232.069V146.601L246.972 168H255V133H246.972V154.399Z" fill="white"/>
<path d="M259 140.706H266.147V168H274.85V140.706H282V133H259V140.706Z" fill="white"/>
<path d="M286 168H304V160.294H294.224V154.259H303.455V146.554H294.224V140.706H304V133H286V168Z" fill="white"/>
<path d="M343 133V140.706H349.836V168H358.161V140.706H365V133H343Z" fill="white"/>
<path d="M330.977 146.308L339.968 133H330.65L323.5 143.583L316.35 133H307.032L316.023 146.305C317.703 148.789 317.703 152.165 316.023 154.649L307 168H316.318L323.5 157.37L330.682 168H340L330.977 154.649C329.3 152.165 329.3 148.789 330.977 146.305V146.308Z" fill="white"/>
<path d="M126 150.997C126 149.528 125.318 148.152 124.171 147.319L120.688 144.787L124.171 142.255C125.318 141.423 126 140.048 126 138.578C126 137.108 125.318 135.733 124.171 134.9L99.9416 117.287C97.5848 115.571 94.4152 115.571 92.0574 117.287L67.8286 134.903C66.6825 135.736 66 137.11 66 138.58C66 140.05 66.6825 141.424 67.8286 142.257L71.3117 144.789L67.8286 147.322C66.6825 148.154 66 149.529 66 150.999C66 152.469 66.6825 153.843 67.8286 154.676L71.3117 157.208L67.8286 159.741C66.6825 160.573 66 161.948 66 163.418C66 164.888 66.6825 166.262 67.8286 167.095L92.0584 184.712C93.2368 185.569 94.6195 186 96 186C97.3805 186 98.7632 185.57 99.9416 184.712L124.171 167.095C125.318 166.263 126 164.888 126 163.418C126 161.948 125.318 160.574 124.171 159.741L120.688 157.208L124.171 154.676C125.318 153.844 126 152.469 126 150.999V150.997ZM69.0591 140.362C68.4964 139.953 68.1745 139.302 68.1745 138.58C68.1745 137.858 68.4964 137.207 69.0591 136.798L93.291 119.181C94.9112 118.002 97.0898 118.002 98.709 119.181L122.941 136.798C123.504 137.207 123.826 137.858 123.826 138.58C123.826 139.302 123.504 139.953 122.941 140.362L118.771 143.392L99.9426 129.704C97.5858 127.988 94.4163 127.988 92.0584 129.704L73.2299 143.392L69.0601 140.362H69.0591ZM92.0584 159.873C93.2368 160.73 94.6195 161.161 96 161.161C97.3805 161.161 98.7632 160.731 99.9416 159.873L110.231 152.393L116.851 157.206L98.709 170.396C97.0888 171.575 94.9102 171.575 93.291 170.396L75.1491 157.206L81.7695 152.393L92.0584 159.873ZM83.6876 150.997L93.291 144.016C94.9112 142.836 97.0898 142.836 98.709 144.016L108.312 150.997L98.709 157.977C97.0888 159.158 94.9102 159.158 93.291 157.977L83.6876 150.997ZM99.9416 142.12C97.5848 140.405 94.4152 140.405 92.0574 142.12L81.7684 149.6L75.1481 144.787L93.29 131.597C94.9102 130.417 97.0888 130.417 98.708 131.597L116.85 144.787L110.23 149.6L99.9405 142.12H99.9416ZM69.0591 152.78C68.4964 152.371 68.1745 151.719 68.1745 150.998C68.1745 150.276 68.4964 149.625 69.0591 149.216L73.2288 146.185L79.8492 150.999L73.2288 155.812L69.0591 152.782V152.78ZM122.941 161.633C123.504 162.041 123.826 162.693 123.826 163.414C123.826 164.136 123.504 164.787 122.941 165.196L98.709 182.813C97.0888 183.993 94.9102 183.993 93.291 182.813L69.0591 165.196C68.4964 164.787 68.1745 164.136 68.1745 163.414C68.1745 162.693 68.4964 162.041 69.0591 161.633L73.2288 158.602L92.0574 172.291C93.2358 173.148 94.6184 173.579 95.999 173.579C97.3795 173.579 98.7621 173.149 99.9405 172.291L118.769 158.602L122.939 161.633H122.941ZM122.941 152.78L118.771 155.81L112.151 150.997L118.771 146.183L122.941 149.214C123.504 149.622 123.826 150.274 123.826 150.995C123.826 151.717 123.504 152.368 122.941 152.777V152.78Z" fill="white"/>
</svg>
